<svg width="357" height="38" viewBox="0 0 357 38" fill="none" xmlns="http://www.w3.org/2000/svg">
<path d="M17.7539 12.7109L13.9648 29H7.12891L0.0390625 1.48047H5.87891L9.70703 18.3359C9.8763 19.0521 10.0586 19.8789 10.2539 20.8164C10.4622 21.7539 10.6315 22.6654 10.7617 23.5508C10.8919 22.9388 11.0091 22.3464 11.1133 21.7734C11.2305 21.1875 11.3477 20.6146 11.4648 20.0547C11.582 19.4818 11.7057 18.9154 11.8359 18.3555L15.7227 1.48047H22.168L26.0156 17.75C26.1458 18.2969 26.3021 19.0911 26.4844 20.1328C26.6797 21.1745 26.862 22.3138 27.0312 23.5508C27.2005 22.7956 27.3503 22.1315 27.4805 21.5586C27.6237 20.9727 27.7604 20.3932 27.8906 19.8203C28.0339 19.2344 28.1836 18.5703 28.3398 17.8281L31.875 1.48047H37.7148L30.6055 29H23.7695L20.0391 13.082C19.8177 12.1445 19.6094 11.1875 19.4141 10.2109C19.2188 9.23438 19.043 8.23177 18.8867 7.20312C18.7826 7.76302 18.6523 8.42057 18.4961 9.17578C18.3398 9.93099 18.1901 10.6341 18.0469 11.2852C17.9167 11.9362 17.819 12.4115 17.7539 12.7109Z" fill="white"/>
<path d="M45.9766 12.0859C46.7188 10.4714 47.6497 9.29948 48.7695 8.57031C49.8893 7.84115 51.224 7.47656 52.7734 7.47656C55.013 7.47656 56.7318 8.16667 57.9297 9.54688C59.1276 10.9271 59.7266 12.9453 59.7266 15.6016V29H54.2578V17.1641C54.2578 15.3021 53.9453 13.9089 53.3203 12.9844C52.6953 12.0599 51.7513 11.5977 50.4883 11.5977C49.1602 11.5977 48.0859 12.1706 47.2656 13.3164C46.4583 14.4492 46.0547 15.9076 46.0547 17.6914V29H40.5664V0.015625H46.0547V7.92578C46.0547 8.39453 46.0482 8.86328 46.0352 9.33203C46.0221 9.80078 46.0026 10.263 45.9766 10.7188C45.9635 11.1745 45.9375 11.6302 45.8984 12.0859H45.9766Z" fill="white"/>
<path d="M69.9023 29.3906C67.8581 29.3906 66.263 28.8372 65.1172 27.7305C63.9714 26.6107 63.3984 25.0417 63.3984 23.0234C63.3984 20.8359 64.1081 19.1758 65.5273 18.043C66.9596 16.9102 69.0299 16.3177 71.7383 16.2656L76.2891 16.1875V15.1133C76.2891 13.7331 76.0482 12.7109 75.5664 12.0469C75.0846 11.3698 74.2969 11.0312 73.2031 11.0312C72.1875 11.0312 71.4388 11.2656 70.957 11.7344C70.4883 12.1901 70.1953 12.9518 70.0781 14.0195L64.3555 13.7461C65.0716 9.56641 68.099 7.47656 73.4375 7.47656C76.1068 7.47656 78.1641 8.13411 79.6094 9.44922C81.0547 10.7643 81.7773 12.6328 81.7773 15.0547V22.75C81.7773 23.9349 81.9076 24.7552 82.168 25.2109C82.4414 25.6536 82.8906 25.875 83.5156 25.875C83.9323 25.875 84.3359 25.8359 84.7266 25.7578V28.7266C84.0495 28.8958 83.4701 29.0195 82.9883 29.0977C82.5065 29.1888 81.9141 29.2344 81.2109 29.2344C79.8307 29.2344 78.8086 28.8958 78.1445 28.2188C77.4935 27.5417 77.1029 26.5456 76.9727 25.2305H76.8555C76.0872 26.6107 75.1237 27.6523 73.9648 28.3555C72.806 29.0456 71.4518 29.3906 69.9023 29.3906ZM76.2891 19.2148L73.4766 19.2539C72.1875 19.319 71.2826 19.4557 70.7617 19.6641C70.2279 19.8984 69.8177 20.25 69.5312 20.7188C69.2578 21.1875 69.1211 21.8125 69.1211 22.5938C69.1211 23.5964 69.349 24.3451 69.8047 24.8398C70.2734 25.3216 70.8919 25.5625 71.6602 25.5625C72.5195 25.5625 73.3073 25.3281 74.0234 24.8594C74.7266 24.3906 75.2799 23.7461 75.6836 22.9258C76.0872 22.0924 76.2891 21.2135 76.2891 20.2891V19.2148Z" fill="white"/>
<path d="M97.3242 28.6875C95.9961 29.1302 94.4531 29.3516 92.6953 29.3516C91.0807 29.3516 89.8372 28.9154 88.9648 28.043C88.0924 27.1576 87.6562 25.8229 87.6562 24.0391V11.5781H84.9805V7.86719H87.9297L89.6484 2.90625H93.0859V7.86719H97.0898V11.5781H93.0859V22.5547C93.0859 23.5833 93.2812 24.3451 93.6719 24.8398C94.0625 25.3216 94.668 25.5625 95.4883 25.5625C95.8789 25.5625 96.4909 25.4714 97.3242 25.2891V28.6875Z" fill="white"/>
<path d="M118.418 22.8281C118.418 24.8724 117.578 26.4805 115.898 27.6523C114.232 28.8112 111.921 29.3906 108.965 29.3906C106.061 29.3906 103.835 28.9349 102.285 28.0234C100.749 27.099 99.7266 25.6667 99.2188 23.7266L104.043 23.0039C104.316 24.0065 104.785 24.7161 105.449 25.1328C106.126 25.5495 107.298 25.7578 108.965 25.7578C110.501 25.7578 111.621 25.5625 112.324 25.1719C113.027 24.7812 113.379 24.1693 113.379 23.3359C113.379 22.6589 113.092 22.125 112.52 21.7344C111.96 21.3307 111.003 20.9922 109.648 20.7188C108.62 20.5104 107.695 20.3086 106.875 20.1133C106.068 19.918 105.371 19.7292 104.785 19.5469C104.212 19.3516 103.743 19.1693 103.379 19C102.298 18.4661 101.471 17.7826 100.898 16.9492C100.339 16.1159 100.059 15.0872 100.059 13.8633C100.059 11.8451 100.833 10.276 102.383 9.15625C103.945 8.02344 106.152 7.45703 109.004 7.45703C111.517 7.45703 113.535 7.94531 115.059 8.92188C116.595 9.89844 117.552 11.3112 117.93 13.1602L113.066 13.668C112.91 12.8086 112.526 12.1706 111.914 11.7539C111.302 11.3242 110.332 11.1094 109.004 11.1094C107.702 11.1094 106.725 11.2786 106.074 11.6172C105.423 11.9427 105.098 12.4961 105.098 13.2773C105.098 13.8893 105.345 14.3776 105.84 14.7422C106.348 15.0938 107.194 15.3867 108.379 15.6211C110.033 15.9596 111.497 16.3112 112.773 16.6758C114.062 17.0273 115.098 17.4505 115.879 17.9453C116.647 18.4401 117.259 19.0781 117.715 19.8594C118.184 20.6276 118.418 21.6172 118.418 22.8281Z" fill="white"/>
<path d="M129.277 21.9688L126.836 29H121.074L131.113 1.48047H137.91L147.91 29H142.207L139.766 21.9688H129.277ZM134.512 5.71875C134.382 6.23958 134.199 6.86458 133.965 7.59375C133.73 8.32292 133.561 8.83724 133.457 9.13672L130.566 17.6328H138.477L135.508 8.96094C135.326 8.42708 135.156 7.88672 135 7.33984C134.844 6.79297 134.681 6.2526 134.512 5.71875Z" fill="white"/>
<path d="M171.777 18.3359C171.777 21.8646 171.068 24.5924 169.648 26.5195C168.242 28.4336 166.25 29.3906 163.672 29.3906C160.612 29.3906 158.477 28.1406 157.266 25.6406H157.148C157.227 26.0312 157.266 27.2161 157.266 29.1953V37.3008H151.777V12.7305C151.777 11.7279 151.764 10.8229 151.738 10.0156C151.712 9.20833 151.673 8.49219 151.621 7.86719H156.953C157.005 8.02344 157.044 8.29036 157.07 8.66797C157.109 9.03255 157.135 9.44922 157.148 9.91797C157.174 10.3867 157.188 10.849 157.188 11.3047H157.266C157.878 10.0026 158.75 9.03255 159.883 8.39453C161.016 7.74349 162.396 7.41797 164.023 7.41797C166.484 7.41797 168.392 8.36849 169.746 10.2695C171.1 12.1576 171.777 14.8464 171.777 18.3359ZM166.055 18.3359C166.055 15.9661 165.69 14.1888 164.961 13.0039C164.245 11.819 163.158 11.2266 161.699 11.2266C160.241 11.2266 159.121 11.8646 158.34 13.1406C157.572 14.4167 157.188 16.2005 157.188 18.4922C157.188 20.7708 157.572 22.5352 158.34 23.7852C159.121 25.0221 160.228 25.6406 161.66 25.6406C163.132 25.6406 164.232 25.0352 164.961 23.8242C165.69 22.6003 166.055 20.7708 166.055 18.3359Z" fill="white"/>
<path d="M196.23 18.3359C196.23 21.8646 195.521 24.5924 194.102 26.5195C192.695 28.4336 190.703 29.3906 188.125 29.3906C185.065 29.3906 182.93 28.1406 181.719 25.6406H181.602C181.68 26.0312 181.719 27.2161 181.719 29.1953V37.3008H176.23V12.7305C176.23 11.7279 176.217 10.8229 176.191 10.0156C176.165 9.20833 176.126 8.49219 176.074 7.86719H181.406C181.458 8.02344 181.497 8.29036 181.523 8.66797C181.562 9.03255 181.589 9.44922 181.602 9.91797C181.628 10.3867 181.641 10.849 181.641 11.3047H181.719C182.331 10.0026 183.203 9.03255 184.336 8.39453C185.469 7.74349 186.849 7.41797 188.477 7.41797C190.938 7.41797 192.845 8.36849 194.199 10.2695C195.553 12.1576 196.23 14.8464 196.23 18.3359ZM190.508 18.3359C190.508 15.9661 190.143 14.1888 189.414 13.0039C188.698 11.819 187.611 11.2266 186.152 11.2266C184.694 11.2266 183.574 11.8646 182.793 13.1406C182.025 14.4167 181.641 16.2005 181.641 18.4922C181.641 20.7708 182.025 22.5352 182.793 23.7852C183.574 25.0221 184.681 25.6406 186.113 25.6406C187.585 25.6406 188.685 25.0352 189.414 23.8242C190.143 22.6003 190.508 20.7708 190.508 18.3359Z" fill="white"/>
<path d="M229.941 25.9531V29H212.305V1.48047H216.035V25.9531H229.941Z" fill="white"/>
<path d="M237.48 0.015625V3.375H233.965V0.015625H237.48ZM237.48 7.86719V29H233.965V7.86719H237.48Z" fill="white"/>
<path d="M258.75 23.1602C258.75 25.1523 257.995 26.6888 256.484 27.7695C254.987 28.8503 252.884 29.3906 250.176 29.3906C247.546 29.3906 245.514 28.9609 244.082 28.1016C242.663 27.2292 241.738 25.875 241.309 24.0391L244.414 23.4336C244.714 24.5664 245.332 25.3997 246.27 25.9336C247.207 26.4544 248.509 26.7148 250.176 26.7148C251.96 26.7148 253.262 26.4414 254.082 25.8945C254.915 25.3477 255.332 24.5273 255.332 23.4336C255.332 22.6003 255.046 21.9232 254.473 21.4023C253.9 20.8815 252.975 20.4518 251.699 20.1133C250.189 19.7096 248.984 19.3776 248.086 19.1172C247.201 18.8568 246.517 18.6354 246.035 18.4531C245.553 18.2578 245.169 18.0755 244.883 17.9062C244.023 17.4115 243.353 16.806 242.871 16.0898C242.389 15.3737 242.148 14.4948 242.148 13.4531C242.148 11.526 242.832 10.0612 244.199 9.05859C245.579 8.04297 247.585 7.53516 250.215 7.53516C252.546 7.53516 254.395 7.94531 255.762 8.76562C257.142 9.58594 258.014 10.901 258.379 12.7109L255.215 13.1016C255.02 12.1641 254.492 11.4479 253.633 10.9531C252.786 10.4453 251.647 10.1914 250.215 10.1914C248.626 10.1914 247.454 10.4323 246.699 10.9141C245.944 11.3958 245.566 12.125 245.566 13.1016C245.566 13.8177 245.781 14.4102 246.211 14.8789C246.641 15.3346 247.461 15.7122 248.672 16.0117C250.299 16.4023 251.849 16.832 253.32 17.3008C254.792 17.7565 255.846 18.2122 256.484 18.668C257.227 19.2018 257.786 19.8333 258.164 20.5625C258.555 21.2786 258.75 22.1445 258.75 23.1602Z" fill="white"/>
<path d="M271.016 28.8438C269.87 29.1562 268.685 29.3125 267.461 29.3125C266.055 29.3125 265 28.9154 264.297 28.1211C263.594 27.3138 263.242 26.1159 263.242 24.5273V10.4258H260.801V7.86719H263.379L264.414 3.14062H266.758V7.86719H270.664V10.4258H266.758V23.7656C266.758 24.7812 266.921 25.4974 267.246 25.9141C267.585 26.3177 268.164 26.5195 268.984 26.5195C269.427 26.5195 270.104 26.4284 271.016 26.2461V28.8438Z" fill="white"/>
<path d="M279.414 29.3906C277.292 29.3906 275.697 28.8307 274.629 27.7109C273.561 26.5911 273.027 25.0547 273.027 23.1016C273.027 20.9141 273.743 19.2344 275.176 18.0625C276.621 16.8906 278.945 16.2656 282.148 16.1875L286.895 16.1094V14.957C286.895 13.2383 286.53 12.0078 285.801 11.2656C285.072 10.5234 283.926 10.1523 282.363 10.1523C280.788 10.1523 279.642 10.4193 278.926 10.9531C278.21 11.487 277.78 12.3398 277.637 13.5117L273.965 13.1797C274.564 9.3776 277.389 7.47656 282.441 7.47656C285.098 7.47656 287.096 8.08854 288.438 9.3125C289.779 10.5234 290.449 12.2812 290.449 14.5859V23.6875C290.449 24.7292 290.586 25.5169 290.859 26.0508C291.133 26.5716 291.654 26.832 292.422 26.832C292.786 26.832 293.171 26.7865 293.574 26.6953V28.8828C293.132 28.987 292.682 29.0651 292.227 29.1172C291.771 29.1693 291.315 29.1953 290.859 29.1953C289.557 29.1953 288.607 28.8568 288.008 28.1797C287.422 27.4896 287.09 26.4154 287.012 24.957H286.895C285.996 26.5716 284.948 27.7174 283.75 28.3945C282.565 29.0586 281.12 29.3906 279.414 29.3906ZM286.895 18.5703L283.047 18.6484C281.406 18.6615 280.156 18.8307 279.297 19.1562C278.438 19.4688 277.78 19.9505 277.324 20.6016C276.868 21.2526 276.641 22.1055 276.641 23.1602C276.641 24.306 276.947 25.1914 277.559 25.8164C278.184 26.4414 279.069 26.7539 280.215 26.7539C281.517 26.7539 282.663 26.4609 283.652 25.875C284.655 25.2891 285.443 24.4883 286.016 23.4727C286.602 22.444 286.895 21.3893 286.895 20.3086V18.5703Z" fill="white"/>
<path d="M309.902 29C309.876 28.8568 309.844 28.5898 309.805 28.1992C309.779 27.7956 309.753 27.3529 309.727 26.8711C309.714 26.3893 309.707 25.9661 309.707 25.6016H309.629C308.978 26.9557 308.112 27.9258 307.031 28.5117C305.964 29.0977 304.635 29.3906 303.047 29.3906C300.378 29.3906 298.411 28.4922 297.148 26.6953C295.898 24.8984 295.273 22.1771 295.273 18.5312C295.273 14.8464 295.918 12.0859 297.207 10.25C298.509 8.40104 300.456 7.47656 303.047 7.47656C304.648 7.47656 305.983 7.76953 307.051 8.35547C308.118 8.94141 308.978 9.8724 309.629 11.1484H309.668L309.629 8.78516V0.015625H313.145V24.6445C313.145 25.7513 313.151 26.6693 313.164 27.3984C313.19 28.1146 313.223 28.6484 313.262 29H309.902ZM298.965 18.4141C298.965 21.3698 299.355 23.4857 300.137 24.7617C300.918 26.0378 302.188 26.6758 303.945 26.6758C305.938 26.6758 307.383 25.9857 308.281 24.6055C309.18 23.2253 309.629 21.0833 309.629 18.1797C309.629 15.3802 309.18 13.3294 308.281 12.0273C307.383 10.7253 305.951 10.0742 303.984 10.0742C302.214 10.0742 300.931 10.7318 300.137 12.0469C299.355 13.349 298.965 15.4714 298.965 18.4141Z" fill="white"/>
<path d="M336.426 18.4141C336.426 22.112 335.612 24.8659 333.984 26.6758C332.357 28.4857 329.993 29.3906 326.895 29.3906C323.809 29.3906 321.478 28.4531 319.902 26.5781C318.327 24.6901 317.539 21.9688 317.539 18.4141C317.539 14.7682 318.327 12.0339 319.902 10.2109C321.491 8.38802 323.861 7.47656 327.012 7.47656C330.241 7.47656 332.617 8.36849 334.141 10.1523C335.664 11.9232 336.426 14.6771 336.426 18.4141ZM332.734 18.4141C332.734 15.4974 332.298 13.3815 331.426 12.0664C330.566 10.7383 329.115 10.0742 327.07 10.0742C325.013 10.0742 323.522 10.7513 322.598 12.1055C321.686 13.4466 321.23 15.5495 321.23 18.4141C321.23 21.2005 321.68 23.2969 322.578 24.7031C323.49 26.0964 324.915 26.793 326.855 26.793C328.965 26.793 330.469 26.1159 331.367 24.7617C332.279 23.4076 332.734 21.2917 332.734 18.4141Z" fill="white"/>
<path d="M356.68 23.1602C356.68 25.1523 355.924 26.6888 354.414 27.7695C352.917 28.8503 350.814 29.3906 348.105 29.3906C345.475 29.3906 343.444 28.9609 342.012 28.1016C340.592 27.2292 339.668 25.875 339.238 24.0391L342.344 23.4336C342.643 24.5664 343.262 25.3997 344.199 25.9336C345.137 26.4544 346.439 26.7148 348.105 26.7148C349.889 26.7148 351.191 26.4414 352.012 25.8945C352.845 25.3477 353.262 24.5273 353.262 23.4336C353.262 22.6003 352.975 21.9232 352.402 21.4023C351.829 20.8815 350.905 20.4518 349.629 20.1133C348.118 19.7096 346.914 19.3776 346.016 19.1172C345.13 18.8568 344.447 18.6354 343.965 18.4531C343.483 18.2578 343.099 18.0755 342.812 17.9062C341.953 17.4115 341.283 16.806 340.801 16.0898C340.319 15.3737 340.078 14.4948 340.078 13.4531C340.078 11.526 340.762 10.0612 342.129 9.05859C343.509 8.04297 345.514 7.53516 348.145 7.53516C350.475 7.53516 352.324 7.94531 353.691 8.76562C355.072 9.58594 355.944 10.901 356.309 12.7109L353.145 13.1016C352.949 12.1641 352.422 11.4479 351.562 10.9531C350.716 10.4453 349.577 10.1914 348.145 10.1914C346.556 10.1914 345.384 10.4323 344.629 10.9141C343.874 11.3958 343.496 12.125 343.496 13.1016C343.496 13.8177 343.711 14.4102 344.141 14.8789C344.57 15.3346 345.391 15.7122 346.602 16.0117C348.229 16.4023 349.779 16.832 351.25 17.3008C352.721 17.7565 353.776 18.2122 354.414 18.668C355.156 19.2018 355.716 19.8333 356.094 20.5625C356.484 21.2786 356.68 22.1445 356.68 23.1602Z" fill="white"/>
</svg>
