<svg width="16" height="16" viewBox="0 0 16 16" fill="none" xmlns="http://www.w3.org/2000/svg">
<rect width="16" height="16" rx="2" fill="#00B79E"/>
<path fill-rule="evenodd" clip-rule="evenodd" d="M12.4381 6.92209C12.9768 7.48489 12.9768 8.39735 12.4381 8.96014L9.71579 11.8045C9.17714 12.3672 8.30381 12.3672 7.76515 11.8045L6.40399 10.3823C5.86534 9.81951 5.86534 8.90704 6.40399 8.34425C6.94264 7.78146 7.81598 7.78146 8.35463 8.34425L8.74047 8.74738L10.4875 6.92209C11.0261 6.3593 11.8995 6.3593 12.4381 6.92209ZM13.2595 9.36327C13.2595 8.56737 13.8771 7.92216 14.6388 7.92216H24.6207C25.3825 7.92216 26 8.56737 26 9.36327C26 10.1592 25.3825 10.8044 24.6207 10.8044H14.6388C13.8771 10.8044 13.2595 10.1592 13.2595 9.36327ZM12.4381 13.5588C12.9768 14.1216 12.9768 15.0341 12.4381 15.5969L9.71579 18.4412C9.17714 19.004 8.30381 19.004 7.76515 18.4412L6.40399 17.019C5.86534 16.4562 5.86534 15.5438 6.40399 14.981C6.94264 14.4182 7.81598 14.4182 8.35463 14.981L8.74047 15.3841L10.4875 13.5588C11.0261 12.996 11.8995 12.996 12.4381 13.5588ZM13.2595 16C13.2595 15.2041 13.8771 14.5589 14.6388 14.5589H24.6207C25.3825 14.5589 26 15.2041 26 16C26 16.7959 25.3825 17.4411 24.6207 17.4411H14.6388C13.8771 17.4411 13.2595 16.7959 13.2595 16ZM12.4381 20.1955C12.9768 20.7583 12.9768 21.6708 12.4381 22.2336L9.71579 25.0779C9.17714 25.6407 8.30381 25.6407 7.76515 25.0779L6.40399 23.6558C5.86534 23.093 5.86534 22.1805 6.40399 21.6177C6.94264 21.0549 7.81598 21.0549 8.35463 21.6177L8.74047 22.0208L10.4875 20.1955C11.0261 19.6328 11.8995 19.6328 12.4381 20.1955ZM13.2595 22.6367C13.2595 21.8408 13.8771 21.1956 14.6388 21.1956H24.6207C25.3825 21.1956 26 21.8408 26 22.6367C26 23.4326 25.3825 24.0778 24.6207 24.0778H14.6388C13.8771 24.0778 13.2595 23.4326 13.2595 22.6367Z" fill="#F3FAFF"/>
</svg>
