<svg width="697" height="697" viewBox="0 0 697 697" fill="none" xmlns="http://www.w3.org/2000/svg">
<path d="M252.36 24.72C259.186 24.72 264.72 19.1862 264.72 12.36C264.72 5.53376 259.186 0 252.36 0C245.534 0 240 5.53376 240 12.36C240 19.1862 245.534 24.72 252.36 24.72Z" fill="white"/>
<path d="M348.36 24.72C355.186 24.72 360.72 19.1862 360.72 12.36C360.72 5.53376 355.186 0 348.36 0C341.534 0 336 5.53376 336 12.36C336 19.1862 341.534 24.72 348.36 24.72Z" fill="white"/>
<path d="M396.36 24.72C403.186 24.72 408.72 19.1862 408.72 12.36C408.72 5.53376 403.186 0 396.36 0C389.534 0 384 5.53376 384 12.36C384 19.1862 389.534 24.72 396.36 24.72Z" fill="white"/>
<path d="M444.36 24.72C451.186 24.72 456.72 19.1862 456.72 12.36C456.72 5.53376 451.186 0 444.36 0C437.534 0 432 5.53376 432 12.36C432 19.1862 437.534 24.72 444.36 24.72Z" fill="white"/>
<path d="M468.36 24.72C475.186 24.72 480.72 19.1862 480.72 12.36C480.72 5.53376 475.186 0 468.36 0C461.534 0 456 5.53376 456 12.36C456 19.1862 461.534 24.72 468.36 24.72Z" fill="white"/>
<path d="M492.36 24.72C499.186 24.72 504.72 19.1862 504.72 12.36C504.72 5.53376 499.186 0 492.36 0C485.534 0 480 5.53376 480 12.36C480 19.1862 485.534 24.72 492.36 24.72Z" fill="white"/>
<path d="M228.36 48.72C235.186 48.72 240.72 43.1862 240.72 36.36C240.72 29.5338 235.186 24 228.36 24C221.534 24 216 29.5338 216 36.36C216 43.1862 221.534 48.72 228.36 48.72Z" fill="white"/>
<path d="M300.36 48.72C307.186 48.72 312.72 43.1862 312.72 36.36C312.72 29.5338 307.186 24 300.36 24C293.534 24 288 29.5338 288 36.36C288 43.1862 293.534 48.72 300.36 48.72Z" fill="white"/>
<path d="M372.36 48.72C379.186 48.72 384.72 43.1862 384.72 36.36C384.72 29.5338 379.186 24 372.36 24C365.534 24 360 29.5338 360 36.36C360 43.1862 365.534 48.72 372.36 48.72Z" fill="white"/>
<path d="M492.36 48.72C499.186 48.72 504.72 43.1862 504.72 36.36C504.72 29.5338 499.186 24 492.36 24C485.534 24 480 29.5338 480 36.36C480 43.1862 485.534 48.72 492.36 48.72Z" fill="white"/>
<path d="M204.36 72.72C211.186 72.72 216.72 67.1862 216.72 60.36C216.72 53.5338 211.186 48 204.36 48C197.534 48 192 53.5338 192 60.36C192 67.1862 197.534 72.72 204.36 72.72Z" fill="white"/>
<path d="M228.36 72.72C235.186 72.72 240.72 67.1862 240.72 60.36C240.72 53.5338 235.186 48 228.36 48C221.534 48 216 53.5338 216 60.36C216 67.1862 221.534 72.72 228.36 72.72Z" fill="white"/>
<path d="M372.36 72.72C379.186 72.72 384.72 67.1862 384.72 60.36C384.72 53.5338 379.186 48 372.36 48C365.534 48 360 53.5338 360 60.36C360 67.1862 365.534 72.72 372.36 72.72Z" fill="white"/>
<path d="M444.36 72.72C451.186 72.72 456.72 67.1862 456.72 60.36C456.72 53.5338 451.186 48 444.36 48C437.534 48 432 53.5338 432 60.36C432 67.1862 437.534 72.72 444.36 72.72Z" fill="white"/>
<path d="M204.36 96.72C211.186 96.72 216.72 91.1862 216.72 84.36C216.72 77.5338 211.186 72 204.36 72C197.534 72 192 77.5338 192 84.36C192 91.1862 197.534 96.72 204.36 96.72Z" fill="white"/>
<path d="M228.36 96.72C235.186 96.72 240.72 91.1862 240.72 84.36C240.72 77.5338 235.186 72 228.36 72C221.534 72 216 77.5338 216 84.36C216 91.1862 221.534 96.72 228.36 96.72Z" fill="white"/>
<path d="M276.36 96.72C283.186 96.72 288.72 91.1862 288.72 84.36C288.72 77.5338 283.186 72 276.36 72C269.534 72 264 77.5338 264 84.36C264 91.1862 269.534 96.72 276.36 96.72Z" fill="white"/>
<path d="M324.36 96.72C331.186 96.72 336.72 91.1862 336.72 84.36C336.72 77.5338 331.186 72 324.36 72C317.534 72 312 77.5338 312 84.36C312 91.1862 317.534 96.72 324.36 96.72Z" fill="white"/>
<path d="M372.36 96.72C379.186 96.72 384.72 91.1862 384.72 84.36C384.72 77.5338 379.186 72 372.36 72C365.534 72 360 77.5338 360 84.36C360 91.1862 365.534 96.72 372.36 96.72Z" fill="white"/>
<path d="M396.36 96.72C403.186 96.72 408.72 91.1862 408.72 84.36C408.72 77.5338 403.186 72 396.36 72C389.534 72 384 77.5338 384 84.36C384 91.1862 389.534 96.72 396.36 96.72Z" fill="white"/>
<path d="M420.36 96.72C427.186 96.72 432.72 91.1862 432.72 84.36C432.72 77.5338 427.186 72 420.36 72C413.534 72 408 77.5338 408 84.36C408 91.1862 413.534 96.72 420.36 96.72Z" fill="white"/>
<path d="M204.36 120.72C211.186 120.72 216.72 115.186 216.72 108.36C216.72 101.534 211.186 96 204.36 96C197.534 96 192 101.534 192 108.36C192 115.186 197.534 120.72 204.36 120.72Z" fill="white"/>
<path d="M252.36 120.72C259.186 120.72 264.72 115.186 264.72 108.36C264.72 101.534 259.186 96 252.36 96C245.534 96 240 101.534 240 108.36C240 115.186 245.534 120.72 252.36 120.72Z" fill="white"/>
<path d="M300.36 120.72C307.186 120.72 312.72 115.186 312.72 108.36C312.72 101.534 307.186 96 300.36 96C293.534 96 288 101.534 288 108.36C288 115.186 293.534 120.72 300.36 120.72Z" fill="white"/>
<path d="M324.36 120.72C331.186 120.72 336.72 115.186 336.72 108.36C336.72 101.534 331.186 96 324.36 96C317.534 96 312 101.534 312 108.36C312 115.186 317.534 120.72 324.36 120.72Z" fill="white"/>
<path d="M396.36 120.72C403.186 120.72 408.72 115.186 408.72 108.36C408.72 101.534 403.186 96 396.36 96C389.534 96 384 101.534 384 108.36C384 115.186 389.534 120.72 396.36 120.72Z" fill="white"/>
<path d="M420.36 120.72C427.186 120.72 432.72 115.186 432.72 108.36C432.72 101.534 427.186 96 420.36 96C413.534 96 408 101.534 408 108.36C408 115.186 413.534 120.72 420.36 120.72Z" fill="white"/>
<path d="M444.36 120.72C451.186 120.72 456.72 115.186 456.72 108.36C456.72 101.534 451.186 96 444.36 96C437.534 96 432 101.534 432 108.36C432 115.186 437.534 120.72 444.36 120.72Z" fill="white"/>
<path d="M468.36 120.72C475.186 120.72 480.72 115.186 480.72 108.36C480.72 101.534 475.186 96 468.36 96C461.534 96 456 101.534 456 108.36C456 115.186 461.534 120.72 468.36 120.72Z" fill="white"/>
<path d="M492.36 120.72C499.186 120.72 504.72 115.186 504.72 108.36C504.72 101.534 499.186 96 492.36 96C485.534 96 480 101.534 480 108.36C480 115.186 485.534 120.72 492.36 120.72Z" fill="white"/>
<path d="M204.36 144.72C211.186 144.72 216.72 139.186 216.72 132.36C216.72 125.534 211.186 120 204.36 120C197.534 120 192 125.534 192 132.36C192 139.186 197.534 144.72 204.36 144.72Z" fill="white"/>
<path d="M228.36 144.72C235.186 144.72 240.72 139.186 240.72 132.36C240.72 125.534 235.186 120 228.36 120C221.534 120 216 125.534 216 132.36C216 139.186 221.534 144.72 228.36 144.72Z" fill="white"/>
<path d="M252.36 144.72C259.186 144.72 264.72 139.186 264.72 132.36C264.72 125.534 259.186 120 252.36 120C245.534 120 240 125.534 240 132.36C240 139.186 245.534 144.72 252.36 144.72Z" fill="white"/>
<path d="M276.36 144.72C283.186 144.72 288.72 139.186 288.72 132.36C288.72 125.534 283.186 120 276.36 120C269.534 120 264 125.534 264 132.36C264 139.186 269.534 144.72 276.36 144.72Z" fill="white"/>
<path d="M300.36 144.72C307.186 144.72 312.72 139.186 312.72 132.36C312.72 125.534 307.186 120 300.36 120C293.534 120 288 125.534 288 132.36C288 139.186 293.534 144.72 300.36 144.72Z" fill="white"/>
<path d="M324.36 144.72C331.186 144.72 336.72 139.186 336.72 132.36C336.72 125.534 331.186 120 324.36 120C317.534 120 312 125.534 312 132.36C312 139.186 317.534 144.72 324.36 144.72Z" fill="white"/>
<path d="M348.36 144.72C355.186 144.72 360.72 139.186 360.72 132.36C360.72 125.534 355.186 120 348.36 120C341.534 120 336 125.534 336 132.36C336 139.186 341.534 144.72 348.36 144.72Z" fill="white"/>
<path d="M372.36 144.72C379.186 144.72 384.72 139.186 384.72 132.36C384.72 125.534 379.186 120 372.36 120C365.534 120 360 125.534 360 132.36C360 139.186 365.534 144.72 372.36 144.72Z" fill="white"/>
<path d="M396.36 144.72C403.186 144.72 408.72 139.186 408.72 132.36C408.72 125.534 403.186 120 396.36 120C389.534 120 384 125.534 384 132.36C384 139.186 389.534 144.72 396.36 144.72Z" fill="white"/>
<path d="M420.36 144.72C427.186 144.72 432.72 139.186 432.72 132.36C432.72 125.534 427.186 120 420.36 120C413.534 120 408 125.534 408 132.36C408 139.186 413.534 144.72 420.36 144.72Z" fill="white"/>
<path d="M204.36 168.72C211.186 168.72 216.72 163.186 216.72 156.36C216.72 149.534 211.186 144 204.36 144C197.534 144 192 149.534 192 156.36C192 163.186 197.534 168.72 204.36 168.72Z" fill="white"/>
<path d="M252.36 168.72C259.186 168.72 264.72 163.186 264.72 156.36C264.72 149.534 259.186 144 252.36 144C245.534 144 240 149.534 240 156.36C240 163.186 245.534 168.72 252.36 168.72Z" fill="white"/>
<path d="M300.36 168.72C307.186 168.72 312.72 163.186 312.72 156.36C312.72 149.534 307.186 144 300.36 144C293.534 144 288 149.534 288 156.36C288 163.186 293.534 168.72 300.36 168.72Z" fill="white"/>
<path d="M348.36 168.72C355.186 168.72 360.72 163.186 360.72 156.36C360.72 149.534 355.186 144 348.36 144C341.534 144 336 149.534 336 156.36C336 163.186 341.534 168.72 348.36 168.72Z" fill="white"/>
<path d="M396.36 168.72C403.186 168.72 408.72 163.186 408.72 156.36C408.72 149.534 403.186 144 396.36 144C389.534 144 384 149.534 384 156.36C384 163.186 389.534 168.72 396.36 168.72Z" fill="white"/>
<path d="M444.36 168.72C451.186 168.72 456.72 163.186 456.72 156.36C456.72 149.534 451.186 144 444.36 144C437.534 144 432 149.534 432 156.36C432 163.186 437.534 168.72 444.36 168.72Z" fill="white"/>
<path d="M492.36 168.72C499.186 168.72 504.72 163.186 504.72 156.36C504.72 149.534 499.186 144 492.36 144C485.534 144 480 149.534 480 156.36C480 163.186 485.534 168.72 492.36 168.72Z" fill="white"/>
<path d="M204.36 192.72C211.186 192.72 216.72 187.186 216.72 180.36C216.72 173.534 211.186 168 204.36 168C197.534 168 192 173.534 192 180.36C192 187.186 197.534 192.72 204.36 192.72Z" fill="white"/>
<path d="M252.36 192.72C259.186 192.72 264.72 187.186 264.72 180.36C264.72 173.534 259.186 168 252.36 168C245.534 168 240 173.534 240 180.36C240 187.186 245.534 192.72 252.36 192.72Z" fill="white"/>
<path d="M300.36 192.72C307.186 192.72 312.72 187.186 312.72 180.36C312.72 173.534 307.186 168 300.36 168C293.534 168 288 173.534 288 180.36C288 187.186 293.534 192.72 300.36 192.72Z" fill="white"/>
<path d="M348.36 192.72C355.186 192.72 360.72 187.186 360.72 180.36C360.72 173.534 355.186 168 348.36 168C341.534 168 336 173.534 336 180.36C336 187.186 341.534 192.72 348.36 192.72Z" fill="white"/>
<path d="M372.36 192.72C379.186 192.72 384.72 187.186 384.72 180.36C384.72 173.534 379.186 168 372.36 168C365.534 168 360 173.534 360 180.36C360 187.186 365.534 192.72 372.36 192.72Z" fill="white"/>
<path d="M492.36 192.72C499.186 192.72 504.72 187.186 504.72 180.36C504.72 173.534 499.186 168 492.36 168C485.534 168 480 173.534 480 180.36C480 187.186 485.534 192.72 492.36 192.72Z" fill="white"/>
<path d="M12.36 216.72C19.1862 216.72 24.72 211.186 24.72 204.36C24.72 197.534 19.1862 192 12.36 192C5.53376 192 0 197.534 0 204.36C0 211.186 5.53376 216.72 12.36 216.72Z" fill="white"/>
<path d="M60.36 216.72C67.1862 216.72 72.72 211.186 72.72 204.36C72.72 197.534 67.1862 192 60.36 192C53.5338 192 48 197.534 48 204.36C48 211.186 53.5338 216.72 60.36 216.72Z" fill="white"/>
<path d="M84.36 216.72C91.1862 216.72 96.72 211.186 96.72 204.36C96.72 197.534 91.1862 192 84.36 192C77.5338 192 72 197.534 72 204.36C72 211.186 77.5338 216.72 84.36 216.72Z" fill="white"/>
<path d="M108.36 216.72C115.186 216.72 120.72 211.186 120.72 204.36C120.72 197.534 115.186 192 108.36 192C101.534 192 96 197.534 96 204.36C96 211.186 101.534 216.72 108.36 216.72Z" fill="white"/>
<path d="M132.36 216.72C139.186 216.72 144.72 211.186 144.72 204.36C144.72 197.534 139.186 192 132.36 192C125.534 192 120 197.534 120 204.36C120 211.186 125.534 216.72 132.36 216.72Z" fill="white"/>
<path d="M156.36 216.72C163.186 216.72 168.72 211.186 168.72 204.36C168.72 197.534 163.186 192 156.36 192C149.534 192 144 197.534 144 204.36C144 211.186 149.534 216.72 156.36 216.72Z" fill="white"/>
<path d="M372.36 216.72C379.186 216.72 384.72 211.186 384.72 204.36C384.72 197.534 379.186 192 372.36 192C365.534 192 360 197.534 360 204.36C360 211.186 365.534 216.72 372.36 216.72Z" fill="white"/>
<path d="M420.36 216.72C427.186 216.72 432.72 211.186 432.72 204.36C432.72 197.534 427.186 192 420.36 192C413.534 192 408 197.534 408 204.36C408 211.186 413.534 216.72 420.36 216.72Z" fill="white"/>
<path d="M492.36 216.72C499.186 216.72 504.72 211.186 504.72 204.36C504.72 197.534 499.186 192 492.36 192C485.534 192 480 197.534 480 204.36C480 211.186 485.534 216.72 492.36 216.72Z" fill="white"/>
<path d="M540.36 216.72C547.186 216.72 552.72 211.186 552.72 204.36C552.72 197.534 547.186 192 540.36 192C533.534 192 528 197.534 528 204.36C528 211.186 533.534 216.72 540.36 216.72Z" fill="white"/>
<path d="M564.36 216.72C571.186 216.72 576.72 211.186 576.72 204.36C576.72 197.534 571.186 192 564.36 192C557.534 192 552 197.534 552 204.36C552 211.186 557.534 216.72 564.36 216.72Z" fill="white"/>
<path d="M588.36 216.72C595.186 216.72 600.72 211.186 600.72 204.36C600.72 197.534 595.186 192 588.36 192C581.534 192 576 197.534 576 204.36C576 211.186 581.534 216.72 588.36 216.72Z" fill="white"/>
<path d="M612.36 216.72C619.186 216.72 624.72 211.186 624.72 204.36C624.72 197.534 619.186 192 612.36 192C605.534 192 600 197.534 600 204.36C600 211.186 605.534 216.72 612.36 216.72Z" fill="white"/>
<path d="M636.36 216.72C643.186 216.72 648.72 211.186 648.72 204.36C648.72 197.534 643.186 192 636.36 192C629.534 192 624 197.534 624 204.36C624 211.186 629.534 216.72 636.36 216.72Z" fill="white"/>
<path d="M12.36 240.72C19.1862 240.72 24.72 235.186 24.72 228.36C24.72 221.534 19.1862 216 12.36 216C5.53376 216 0 221.534 0 228.36C0 235.186 5.53376 240.72 12.36 240.72Z" fill="white"/>
<path d="M36.36 240.72C43.1862 240.72 48.72 235.186 48.72 228.36C48.72 221.534 43.1862 216 36.36 216C29.5338 216 24 221.534 24 228.36C24 235.186 29.5338 240.72 36.36 240.72Z" fill="white"/>
<path d="M60.36 240.72C67.1862 240.72 72.72 235.186 72.72 228.36C72.72 221.534 67.1862 216 60.36 216C53.5338 216 48 221.534 48 228.36C48 235.186 53.5338 240.72 60.36 240.72Z" fill="white"/>
<path d="M132.36 240.72C139.186 240.72 144.72 235.186 144.72 228.36C144.72 221.534 139.186 216 132.36 216C125.534 216 120 221.534 120 228.36C120 235.186 125.534 240.72 132.36 240.72Z" fill="white"/>
<path d="M204.36 240.72C211.186 240.72 216.72 235.186 216.72 228.36C216.72 221.534 211.186 216 204.36 216C197.534 216 192 221.534 192 228.36C192 235.186 197.534 240.72 204.36 240.72Z" fill="white"/>
<path d="M228.36 240.72C235.186 240.72 240.72 235.186 240.72 228.36C240.72 221.534 235.186 216 228.36 216C221.534 216 216 221.534 216 228.36C216 235.186 221.534 240.72 228.36 240.72Z" fill="white"/>
<path d="M324.36 240.72C331.186 240.72 336.72 235.186 336.72 228.36C336.72 221.534 331.186 216 324.36 216C317.534 216 312 221.534 312 228.36C312 235.186 317.534 240.72 324.36 240.72Z" fill="white"/>
<path d="M396.36 240.72C403.186 240.72 408.72 235.186 408.72 228.36C408.72 221.534 403.186 216 396.36 216C389.534 216 384 221.534 384 228.36C384 235.186 389.534 240.72 396.36 240.72Z" fill="white"/>
<path d="M468.36 240.72C475.186 240.72 480.72 235.186 480.72 228.36C480.72 221.534 475.186 216 468.36 216C461.534 216 456 221.534 456 228.36C456 235.186 461.534 240.72 468.36 240.72Z" fill="white"/>
<path d="M492.36 240.72C499.186 240.72 504.72 235.186 504.72 228.36C504.72 221.534 499.186 216 492.36 216C485.534 216 480 221.534 480 228.36C480 235.186 485.534 240.72 492.36 240.72Z" fill="white"/>
<path d="M540.36 240.72C547.186 240.72 552.72 235.186 552.72 228.36C552.72 221.534 547.186 216 540.36 216C533.534 216 528 221.534 528 228.36C528 235.186 533.534 240.72 540.36 240.72Z" fill="white"/>
<path d="M564.36 240.72C571.186 240.72 576.72 235.186 576.72 228.36C576.72 221.534 571.186 216 564.36 216C557.534 216 552 221.534 552 228.36C552 235.186 557.534 240.72 564.36 240.72Z" fill="white"/>
<path d="M588.36 240.72C595.186 240.72 600.72 235.186 600.72 228.36C600.72 221.534 595.186 216 588.36 216C581.534 216 576 221.534 576 228.36C576 235.186 581.534 240.72 588.36 240.72Z" fill="white"/>
<path d="M684.36 240.72C691.186 240.72 696.72 235.186 696.72 228.36C696.72 221.534 691.186 216 684.36 216C677.534 216 672 221.534 672 228.36C672 235.186 677.534 240.72 684.36 240.72Z" fill="white"/>
<path d="M12.36 264.72C19.1862 264.72 24.72 259.186 24.72 252.36C24.72 245.534 19.1862 240 12.36 240C5.53376 240 0 245.534 0 252.36C0 259.186 5.53376 264.72 12.36 264.72Z" fill="white"/>
<path d="M60.36 264.72C67.1862 264.72 72.72 259.186 72.72 252.36C72.72 245.534 67.1862 240 60.36 240C53.5338 240 48 245.534 48 252.36C48 259.186 53.5338 264.72 60.36 264.72Z" fill="white"/>
<path d="M156.36 264.72C163.186 264.72 168.72 259.186 168.72 252.36C168.72 245.534 163.186 240 156.36 240C149.534 240 144 245.534 144 252.36C144 259.186 149.534 264.72 156.36 264.72Z" fill="white"/>
<path d="M204.36 264.72C211.186 264.72 216.72 259.186 216.72 252.36C216.72 245.534 211.186 240 204.36 240C197.534 240 192 245.534 192 252.36C192 259.186 197.534 264.72 204.36 264.72Z" fill="white"/>
<path d="M228.36 264.72C235.186 264.72 240.72 259.186 240.72 252.36C240.72 245.534 235.186 240 228.36 240C221.534 240 216 245.534 216 252.36C216 259.186 221.534 264.72 228.36 264.72Z" fill="white"/>
<path d="M276.36 264.72C283.186 264.72 288.72 259.186 288.72 252.36C288.72 245.534 283.186 240 276.36 240C269.534 240 264 245.534 264 252.36C264 259.186 269.534 264.72 276.36 264.72Z" fill="white"/>
<path d="M324.36 264.72C331.186 264.72 336.72 259.186 336.72 252.36C336.72 245.534 331.186 240 324.36 240C317.534 240 312 245.534 312 252.36C312 259.186 317.534 264.72 324.36 264.72Z" fill="white"/>
<path d="M348.36 264.72C355.186 264.72 360.72 259.186 360.72 252.36C360.72 245.534 355.186 240 348.36 240C341.534 240 336 245.534 336 252.36C336 259.186 341.534 264.72 348.36 264.72Z" fill="white"/>
<path d="M372.36 264.72C379.186 264.72 384.72 259.186 384.72 252.36C384.72 245.534 379.186 240 372.36 240C365.534 240 360 245.534 360 252.36C360 259.186 365.534 264.72 372.36 264.72Z" fill="white"/>
<path d="M420.36 264.72C427.186 264.72 432.72 259.186 432.72 252.36C432.72 245.534 427.186 240 420.36 240C413.534 240 408 245.534 408 252.36C408 259.186 413.534 264.72 420.36 264.72Z" fill="white"/>
<path d="M444.36 264.72C451.186 264.72 456.72 259.186 456.72 252.36C456.72 245.534 451.186 240 444.36 240C437.534 240 432 245.534 432 252.36C432 259.186 437.534 264.72 444.36 264.72Z" fill="white"/>
<path d="M492.36 264.72C499.186 264.72 504.72 259.186 504.72 252.36C504.72 245.534 499.186 240 492.36 240C485.534 240 480 245.534 480 252.36C480 259.186 485.534 264.72 492.36 264.72Z" fill="white"/>
<path d="M516.36 264.72C523.186 264.72 528.72 259.186 528.72 252.36C528.72 245.534 523.186 240 516.36 240C509.534 240 504 245.534 504 252.36C504 259.186 509.534 264.72 516.36 264.72Z" fill="white"/>
<path d="M588.36 264.72C595.186 264.72 600.72 259.186 600.72 252.36C600.72 245.534 595.186 240 588.36 240C581.534 240 576 245.534 576 252.36C576 259.186 581.534 264.72 588.36 264.72Z" fill="white"/>
<path d="M324.36 288.72C331.186 288.72 336.72 283.186 336.72 276.36C336.72 269.534 331.186 264 324.36 264C317.534 264 312 269.534 312 276.36C312 283.186 317.534 288.72 324.36 288.72Z" fill="white"/>
<path d="M396.36 288.72C403.186 288.72 408.72 283.186 408.72 276.36C408.72 269.534 403.186 264 396.36 264C389.534 264 384 269.534 384 276.36C384 283.186 389.534 288.72 396.36 288.72Z" fill="white"/>
<path d="M468.36 288.72C475.186 288.72 480.72 283.186 480.72 276.36C480.72 269.534 475.186 264 468.36 264C461.534 264 456 269.534 456 276.36C456 283.186 461.534 288.72 468.36 288.72Z" fill="white"/>
<path d="M540.36 288.72C547.186 288.72 552.72 283.186 552.72 276.36C552.72 269.534 547.186 264 540.36 264C533.534 264 528 269.534 528 276.36C528 283.186 533.534 288.72 540.36 288.72Z" fill="white"/>
<path d="M564.36 288.72C571.186 288.72 576.72 283.186 576.72 276.36C576.72 269.534 571.186 264 564.36 264C557.534 264 552 269.534 552 276.36C552 283.186 557.534 288.72 564.36 288.72Z" fill="white"/>
<path d="M588.36 288.72C595.186 288.72 600.72 283.186 600.72 276.36C600.72 269.534 595.186 264 588.36 264C581.534 264 576 269.534 576 276.36C576 283.186 581.534 288.72 588.36 288.72Z" fill="white"/>
<path d="M612.36 288.72C619.186 288.72 624.72 283.186 624.72 276.36C624.72 269.534 619.186 264 612.36 264C605.534 264 600 269.534 600 276.36C600 283.186 605.534 288.72 612.36 288.72Z" fill="white"/>
<path d="M660.36 288.72C667.186 288.72 672.72 283.186 672.72 276.36C672.72 269.534 667.186 264 660.36 264C653.534 264 648 269.534 648 276.36C648 283.186 653.534 288.72 660.36 288.72Z" fill="white"/>
<path d="M12.36 312.72C19.1862 312.72 24.72 307.186 24.72 300.36C24.72 293.534 19.1862 288 12.36 288C5.53376 288 0 293.534 0 300.36C0 307.186 5.53376 312.72 12.36 312.72Z" fill="white"/>
<path d="M84.36 312.72C91.1862 312.72 96.72 307.186 96.72 300.36C96.72 293.534 91.1862 288 84.36 288C77.5338 288 72 293.534 72 300.36C72 307.186 77.5338 312.72 84.36 312.72Z" fill="white"/>
<path d="M132.36 312.72C139.186 312.72 144.72 307.186 144.72 300.36C144.72 293.534 139.186 288 132.36 288C125.534 288 120 293.534 120 300.36C120 307.186 125.534 312.72 132.36 312.72Z" fill="white"/>
<path d="M156.36 312.72C163.186 312.72 168.72 307.186 168.72 300.36C168.72 293.534 163.186 288 156.36 288C149.534 288 144 293.534 144 300.36C144 307.186 149.534 312.72 156.36 312.72Z" fill="white"/>
<path d="M180.36 312.72C187.186 312.72 192.72 307.186 192.72 300.36C192.72 293.534 187.186 288 180.36 288C173.534 288 168 293.534 168 300.36C168 307.186 173.534 312.72 180.36 312.72Z" fill="white"/>
<path d="M228.36 312.72C235.186 312.72 240.72 307.186 240.72 300.36C240.72 293.534 235.186 288 228.36 288C221.534 288 216 293.534 216 300.36C216 307.186 221.534 312.72 228.36 312.72Z" fill="white"/>
<path d="M252.36 312.72C259.186 312.72 264.72 307.186 264.72 300.36C264.72 293.534 259.186 288 252.36 288C245.534 288 240 293.534 240 300.36C240 307.186 245.534 312.72 252.36 312.72Z" fill="white"/>
<path d="M276.36 312.72C283.186 312.72 288.72 307.186 288.72 300.36C288.72 293.534 283.186 288 276.36 288C269.534 288 264 293.534 264 300.36C264 307.186 269.534 312.72 276.36 312.72Z" fill="white"/>
<path d="M348.36 312.72C355.186 312.72 360.72 307.186 360.72 300.36C360.72 293.534 355.186 288 348.36 288C341.534 288 336 293.534 336 300.36C336 307.186 341.534 312.72 348.36 312.72Z" fill="white"/>
<path d="M420.36 312.72C427.186 312.72 432.72 307.186 432.72 300.36C432.72 293.534 427.186 288 420.36 288C413.534 288 408 293.534 408 300.36C408 307.186 413.534 312.72 420.36 312.72Z" fill="white"/>
<path d="M444.36 312.72C451.186 312.72 456.72 307.186 456.72 300.36C456.72 293.534 451.186 288 444.36 288C437.534 288 432 293.534 432 300.36C432 307.186 437.534 312.72 444.36 312.72Z" fill="white"/>
<path d="M492.36 312.72C499.186 312.72 504.72 307.186 504.72 300.36C504.72 293.534 499.186 288 492.36 288C485.534 288 480 293.534 480 300.36C480 307.186 485.534 312.72 492.36 312.72Z" fill="white"/>
<path d="M564.36 312.72C571.186 312.72 576.72 307.186 576.72 300.36C576.72 293.534 571.186 288 564.36 288C557.534 288 552 293.534 552 300.36C552 307.186 557.534 312.72 564.36 312.72Z" fill="white"/>
<path d="M612.36 312.72C619.186 312.72 624.72 307.186 624.72 300.36C624.72 293.534 619.186 288 612.36 288C605.534 288 600 293.534 600 300.36C600 307.186 605.534 312.72 612.36 312.72Z" fill="white"/>
<path d="M636.36 312.72C643.186 312.72 648.72 307.186 648.72 300.36C648.72 293.534 643.186 288 636.36 288C629.534 288 624 293.534 624 300.36C624 307.186 629.534 312.72 636.36 312.72Z" fill="white"/>
<path d="M12.36 336.72C19.1862 336.72 24.72 331.186 24.72 324.36C24.72 317.534 19.1862 312 12.36 312C5.53376 312 0 317.534 0 324.36C0 331.186 5.53376 336.72 12.36 336.72Z" fill="white"/>
<path d="M108.36 336.72C115.186 336.72 120.72 331.186 120.72 324.36C120.72 317.534 115.186 312 108.36 312C101.534 312 96 317.534 96 324.36C96 331.186 101.534 336.72 108.36 336.72Z" fill="white"/>
<path d="M132.36 336.72C139.186 336.72 144.72 331.186 144.72 324.36C144.72 317.534 139.186 312 132.36 312C125.534 312 120 317.534 120 324.36C120 331.186 125.534 336.72 132.36 336.72Z" fill="white"/>
<path d="M180.36 336.72C187.186 336.72 192.72 331.186 192.72 324.36C192.72 317.534 187.186 312 180.36 312C173.534 312 168 317.534 168 324.36C168 331.186 173.534 336.72 180.36 336.72Z" fill="white"/>
<path d="M204.36 336.72C211.186 336.72 216.72 331.186 216.72 324.36C216.72 317.534 211.186 312 204.36 312C197.534 312 192 317.534 192 324.36C192 331.186 197.534 336.72 204.36 336.72Z" fill="white"/>
<path d="M252.36 336.72C259.186 336.72 264.72 331.186 264.72 324.36C264.72 317.534 259.186 312 252.36 312C245.534 312 240 317.534 240 324.36C240 331.186 245.534 336.72 252.36 336.72Z" fill="white"/>
<path d="M420.36 336.72C427.186 336.72 432.72 331.186 432.72 324.36C432.72 317.534 427.186 312 420.36 312C413.534 312 408 317.534 408 324.36C408 331.186 413.534 336.72 420.36 336.72Z" fill="white"/>
<path d="M444.36 336.72C451.186 336.72 456.72 331.186 456.72 324.36C456.72 317.534 451.186 312 444.36 312C437.534 312 432 317.534 432 324.36C432 331.186 437.534 336.72 444.36 336.72Z" fill="white"/>
<path d="M468.36 336.72C475.186 336.72 480.72 331.186 480.72 324.36C480.72 317.534 475.186 312 468.36 312C461.534 312 456 317.534 456 324.36C456 331.186 461.534 336.72 468.36 336.72Z" fill="white"/>
<path d="M492.36 336.72C499.186 336.72 504.72 331.186 504.72 324.36C504.72 317.534 499.186 312 492.36 312C485.534 312 480 317.534 480 324.36C480 331.186 485.534 336.72 492.36 336.72Z" fill="white"/>
<path d="M516.36 336.72C523.186 336.72 528.72 331.186 528.72 324.36C528.72 317.534 523.186 312 516.36 312C509.534 312 504 317.534 504 324.36C504 331.186 509.534 336.72 516.36 336.72Z" fill="white"/>
<path d="M540.36 336.72C547.186 336.72 552.72 331.186 552.72 324.36C552.72 317.534 547.186 312 540.36 312C533.534 312 528 317.534 528 324.36C528 331.186 533.534 336.72 540.36 336.72Z" fill="white"/>
<path d="M564.36 336.72C571.186 336.72 576.72 331.186 576.72 324.36C576.72 317.534 571.186 312 564.36 312C557.534 312 552 317.534 552 324.36C552 331.186 557.534 336.72 564.36 336.72Z" fill="white"/>
<path d="M588.36 336.72C595.186 336.72 600.72 331.186 600.72 324.36C600.72 317.534 595.186 312 588.36 312C581.534 312 576 317.534 576 324.36C576 331.186 581.534 336.72 588.36 336.72Z" fill="white"/>
<path d="M684.36 336.72C691.186 336.72 696.72 331.186 696.72 324.36C696.72 317.534 691.186 312 684.36 312C677.534 312 672 317.534 672 324.36C672 331.186 677.534 336.72 684.36 336.72Z" fill="white"/>
<path d="M108.36 360.72C115.186 360.72 120.72 355.186 120.72 348.36C120.72 341.534 115.186 336 108.36 336C101.534 336 96 341.534 96 348.36C96 355.186 101.534 360.72 108.36 360.72Z" fill="white"/>
<path d="M132.36 360.72C139.186 360.72 144.72 355.186 144.72 348.36C144.72 341.534 139.186 336 132.36 336C125.534 336 120 341.534 120 348.36C120 355.186 125.534 360.72 132.36 360.72Z" fill="white"/>
<path d="M156.36 360.72C163.186 360.72 168.72 355.186 168.72 348.36C168.72 341.534 163.186 336 156.36 336C149.534 336 144 341.534 144 348.36C144 355.186 149.534 360.72 156.36 360.72Z" fill="white"/>
<path d="M180.36 360.72C187.186 360.72 192.72 355.186 192.72 348.36C192.72 341.534 187.186 336 180.36 336C173.534 336 168 341.534 168 348.36C168 355.186 173.534 360.72 180.36 360.72Z" fill="white"/>
<path d="M252.36 360.72C259.186 360.72 264.72 355.186 264.72 348.36C264.72 341.534 259.186 336 252.36 336C245.534 336 240 341.534 240 348.36C240 355.186 245.534 360.72 252.36 360.72Z" fill="white"/>
<path d="M300.36 360.72C307.186 360.72 312.72 355.186 312.72 348.36C312.72 341.534 307.186 336 300.36 336C293.534 336 288 341.534 288 348.36C288 355.186 293.534 360.72 300.36 360.72Z" fill="white"/>
<path d="M372.36 360.72C379.186 360.72 384.72 355.186 384.72 348.36C384.72 341.534 379.186 336 372.36 336C365.534 336 360 341.534 360 348.36C360 355.186 365.534 360.72 372.36 360.72Z" fill="white"/>
<path d="M396.36 360.72C403.186 360.72 408.72 355.186 408.72 348.36C408.72 341.534 403.186 336 396.36 336C389.534 336 384 341.534 384 348.36C384 355.186 389.534 360.72 396.36 360.72Z" fill="white"/>
<path d="M420.36 360.72C427.186 360.72 432.72 355.186 432.72 348.36C432.72 341.534 427.186 336 420.36 336C413.534 336 408 341.534 408 348.36C408 355.186 413.534 360.72 420.36 360.72Z" fill="white"/>
<path d="M492.36 360.72C499.186 360.72 504.72 355.186 504.72 348.36C504.72 341.534 499.186 336 492.36 336C485.534 336 480 341.534 480 348.36C480 355.186 485.534 360.72 492.36 360.72Z" fill="white"/>
<path d="M516.36 360.72C523.186 360.72 528.72 355.186 528.72 348.36C528.72 341.534 523.186 336 516.36 336C509.534 336 504 341.534 504 348.36C504 355.186 509.534 360.72 516.36 360.72Z" fill="white"/>
<path d="M564.36 360.72C571.186 360.72 576.72 355.186 576.72 348.36C576.72 341.534 571.186 336 564.36 336C557.534 336 552 341.534 552 348.36C552 355.186 557.534 360.72 564.36 360.72Z" fill="white"/>
<path d="M588.36 360.72C595.186 360.72 600.72 355.186 600.72 348.36C600.72 341.534 595.186 336 588.36 336C581.534 336 576 341.534 576 348.36C576 355.186 581.534 360.72 588.36 360.72Z" fill="white"/>
<path d="M612.36 360.72C619.186 360.72 624.72 355.186 624.72 348.36C624.72 341.534 619.186 336 612.36 336C605.534 336 600 341.534 600 348.36C600 355.186 605.534 360.72 612.36 360.72Z" fill="white"/>
<path d="M636.36 360.72C643.186 360.72 648.72 355.186 648.72 348.36C648.72 341.534 643.186 336 636.36 336C629.534 336 624 341.534 624 348.36C624 355.186 629.534 360.72 636.36 360.72Z" fill="white"/>
<path d="M84.36 384.72C91.1862 384.72 96.72 379.186 96.72 372.36C96.72 365.534 91.1862 360 84.36 360C77.5338 360 72 365.534 72 372.36C72 379.186 77.5338 384.72 84.36 384.72Z" fill="white"/>
<path d="M108.36 384.72C115.186 384.72 120.72 379.186 120.72 372.36C120.72 365.534 115.186 360 108.36 360C101.534 360 96 365.534 96 372.36C96 379.186 101.534 384.72 108.36 384.72Z" fill="white"/>
<path d="M132.36 384.72C139.186 384.72 144.72 379.186 144.72 372.36C144.72 365.534 139.186 360 132.36 360C125.534 360 120 365.534 120 372.36C120 379.186 125.534 384.72 132.36 384.72Z" fill="white"/>
<path d="M252.36 384.72C259.186 384.72 264.72 379.186 264.72 372.36C264.72 365.534 259.186 360 252.36 360C245.534 360 240 365.534 240 372.36C240 379.186 245.534 384.72 252.36 384.72Z" fill="white"/>
<path d="M348.36 384.72C355.186 384.72 360.72 379.186 360.72 372.36C360.72 365.534 355.186 360 348.36 360C341.534 360 336 365.534 336 372.36C336 379.186 341.534 384.72 348.36 384.72Z" fill="white"/>
<path d="M372.36 384.72C379.186 384.72 384.72 379.186 384.72 372.36C384.72 365.534 379.186 360 372.36 360C365.534 360 360 365.534 360 372.36C360 379.186 365.534 384.72 372.36 384.72Z" fill="white"/>
<path d="M444.36 384.72C451.186 384.72 456.72 379.186 456.72 372.36C456.72 365.534 451.186 360 444.36 360C437.534 360 432 365.534 432 372.36C432 379.186 437.534 384.72 444.36 384.72Z" fill="white"/>
<path d="M588.36 384.72C595.186 384.72 600.72 379.186 600.72 372.36C600.72 365.534 595.186 360 588.36 360C581.534 360 576 365.534 576 372.36C576 379.186 581.534 384.72 588.36 384.72Z" fill="white"/>
<path d="M660.36 384.72C667.186 384.72 672.72 379.186 672.72 372.36C672.72 365.534 667.186 360 660.36 360C653.534 360 648 365.534 648 372.36C648 379.186 653.534 384.72 660.36 384.72Z" fill="white"/>
<path d="M12.36 408.72C19.1862 408.72 24.72 403.186 24.72 396.36C24.72 389.534 19.1862 384 12.36 384C5.53376 384 0 389.534 0 396.36C0 403.186 5.53376 408.72 12.36 408.72Z" fill="white"/>
<path d="M60.36 408.72C67.1862 408.72 72.72 403.186 72.72 396.36C72.72 389.534 67.1862 384 60.36 384C53.5338 384 48 389.534 48 396.36C48 403.186 53.5338 408.72 60.36 408.72Z" fill="white"/>
<path d="M108.36 408.72C115.186 408.72 120.72 403.186 120.72 396.36C120.72 389.534 115.186 384 108.36 384C101.534 384 96 389.534 96 396.36C96 403.186 101.534 408.72 108.36 408.72Z" fill="white"/>
<path d="M132.36 408.72C139.186 408.72 144.72 403.186 144.72 396.36C144.72 389.534 139.186 384 132.36 384C125.534 384 120 389.534 120 396.36C120 403.186 125.534 408.72 132.36 408.72Z" fill="white"/>
<path d="M156.36 408.72C163.186 408.72 168.72 403.186 168.72 396.36C168.72 389.534 163.186 384 156.36 384C149.534 384 144 389.534 144 396.36C144 403.186 149.534 408.72 156.36 408.72Z" fill="white"/>
<path d="M180.36 408.72C187.186 408.72 192.72 403.186 192.72 396.36C192.72 389.534 187.186 384 180.36 384C173.534 384 168 389.534 168 396.36C168 403.186 173.534 408.72 180.36 408.72Z" fill="white"/>
<path d="M228.36 408.72C235.186 408.72 240.72 403.186 240.72 396.36C240.72 389.534 235.186 384 228.36 384C221.534 384 216 389.534 216 396.36C216 403.186 221.534 408.72 228.36 408.72Z" fill="white"/>
<path d="M300.36 408.72C307.186 408.72 312.72 403.186 312.72 396.36C312.72 389.534 307.186 384 300.36 384C293.534 384 288 389.534 288 396.36C288 403.186 293.534 408.72 300.36 408.72Z" fill="white"/>
<path d="M396.36 408.72C403.186 408.72 408.72 403.186 408.72 396.36C408.72 389.534 403.186 384 396.36 384C389.534 384 384 389.534 384 396.36C384 403.186 389.534 408.72 396.36 408.72Z" fill="white"/>
<path d="M420.36 408.72C427.186 408.72 432.72 403.186 432.72 396.36C432.72 389.534 427.186 384 420.36 384C413.534 384 408 389.534 408 396.36C408 403.186 413.534 408.72 420.36 408.72Z" fill="white"/>
<path d="M468.36 408.72C475.186 408.72 480.72 403.186 480.72 396.36C480.72 389.534 475.186 384 468.36 384C461.534 384 456 389.534 456 396.36C456 403.186 461.534 408.72 468.36 408.72Z" fill="white"/>
<path d="M612.36 408.72C619.186 408.72 624.72 403.186 624.72 396.36C624.72 389.534 619.186 384 612.36 384C605.534 384 600 389.534 600 396.36C600 403.186 605.534 408.72 612.36 408.72Z" fill="white"/>
<path d="M636.36 408.72C643.186 408.72 648.72 403.186 648.72 396.36C648.72 389.534 643.186 384 636.36 384C629.534 384 624 389.534 624 396.36C624 403.186 629.534 408.72 636.36 408.72Z" fill="white"/>
<path d="M12.36 432.72C19.1862 432.72 24.72 427.186 24.72 420.36C24.72 413.534 19.1862 408 12.36 408C5.53376 408 0 413.534 0 420.36C0 427.186 5.53376 432.72 12.36 432.72Z" fill="white"/>
<path d="M36.36 432.72C43.1862 432.72 48.72 427.186 48.72 420.36C48.72 413.534 43.1862 408 36.36 408C29.5338 408 24 413.534 24 420.36C24 427.186 29.5338 432.72 36.36 432.72Z" fill="white"/>
<path d="M84.36 432.72C91.1862 432.72 96.72 427.186 96.72 420.36C96.72 413.534 91.1862 408 84.36 408C77.5338 408 72 413.534 72 420.36C72 427.186 77.5338 432.72 84.36 432.72Z" fill="white"/>
<path d="M180.36 432.72C187.186 432.72 192.72 427.186 192.72 420.36C192.72 413.534 187.186 408 180.36 408C173.534 408 168 413.534 168 420.36C168 427.186 173.534 432.72 180.36 432.72Z" fill="white"/>
<path d="M228.36 432.72C235.186 432.72 240.72 427.186 240.72 420.36C240.72 413.534 235.186 408 228.36 408C221.534 408 216 413.534 216 420.36C216 427.186 221.534 432.72 228.36 432.72Z" fill="white"/>
<path d="M300.36 432.72C307.186 432.72 312.72 427.186 312.72 420.36C312.72 413.534 307.186 408 300.36 408C293.534 408 288 413.534 288 420.36C288 427.186 293.534 432.72 300.36 432.72Z" fill="white"/>
<path d="M324.36 432.72C331.186 432.72 336.72 427.186 336.72 420.36C336.72 413.534 331.186 408 324.36 408C317.534 408 312 413.534 312 420.36C312 427.186 317.534 432.72 324.36 432.72Z" fill="white"/>
<path d="M348.36 432.72C355.186 432.72 360.72 427.186 360.72 420.36C360.72 413.534 355.186 408 348.36 408C341.534 408 336 413.534 336 420.36C336 427.186 341.534 432.72 348.36 432.72Z" fill="white"/>
<path d="M396.36 432.72C403.186 432.72 408.72 427.186 408.72 420.36C408.72 413.534 403.186 408 396.36 408C389.534 408 384 413.534 384 420.36C384 427.186 389.534 432.72 396.36 432.72Z" fill="white"/>
<path d="M420.36 432.72C427.186 432.72 432.72 427.186 432.72 420.36C432.72 413.534 427.186 408 420.36 408C413.534 408 408 413.534 408 420.36C408 427.186 413.534 432.72 420.36 432.72Z" fill="white"/>
<path d="M444.36 432.72C451.186 432.72 456.72 427.186 456.72 420.36C456.72 413.534 451.186 408 444.36 408C437.534 408 432 413.534 432 420.36C432 427.186 437.534 432.72 444.36 432.72Z" fill="white"/>
<path d="M468.36 432.72C475.186 432.72 480.72 427.186 480.72 420.36C480.72 413.534 475.186 408 468.36 408C461.534 408 456 413.534 456 420.36C456 427.186 461.534 432.72 468.36 432.72Z" fill="white"/>
<path d="M492.36 432.72C499.186 432.72 504.72 427.186 504.72 420.36C504.72 413.534 499.186 408 492.36 408C485.534 408 480 413.534 480 420.36C480 427.186 485.534 432.72 492.36 432.72Z" fill="white"/>
<path d="M540.36 432.72C547.186 432.72 552.72 427.186 552.72 420.36C552.72 413.534 547.186 408 540.36 408C533.534 408 528 413.534 528 420.36C528 427.186 533.534 432.72 540.36 432.72Z" fill="white"/>
<path d="M564.36 432.72C571.186 432.72 576.72 427.186 576.72 420.36C576.72 413.534 571.186 408 564.36 408C557.534 408 552 413.534 552 420.36C552 427.186 557.534 432.72 564.36 432.72Z" fill="white"/>
<path d="M588.36 432.72C595.186 432.72 600.72 427.186 600.72 420.36C600.72 413.534 595.186 408 588.36 408C581.534 408 576 413.534 576 420.36C576 427.186 581.534 432.72 588.36 432.72Z" fill="white"/>
<path d="M636.36 432.72C643.186 432.72 648.72 427.186 648.72 420.36C648.72 413.534 643.186 408 636.36 408C629.534 408 624 413.534 624 420.36C624 427.186 629.534 432.72 636.36 432.72Z" fill="white"/>
<path d="M684.36 432.72C691.186 432.72 696.72 427.186 696.72 420.36C696.72 413.534 691.186 408 684.36 408C677.534 408 672 413.534 672 420.36C672 427.186 677.534 432.72 684.36 432.72Z" fill="white"/>
<path d="M12.36 456.72C19.1862 456.72 24.72 451.186 24.72 444.36C24.72 437.534 19.1862 432 12.36 432C5.53376 432 0 437.534 0 444.36C0 451.186 5.53376 456.72 12.36 456.72Z" fill="white"/>
<path d="M60.36 456.72C67.1862 456.72 72.72 451.186 72.72 444.36C72.72 437.534 67.1862 432 60.36 432C53.5338 432 48 437.534 48 444.36C48 451.186 53.5338 456.72 60.36 456.72Z" fill="white"/>
<path d="M132.36 456.72C139.186 456.72 144.72 451.186 144.72 444.36C144.72 437.534 139.186 432 132.36 432C125.534 432 120 437.534 120 444.36C120 451.186 125.534 456.72 132.36 456.72Z" fill="white"/>
<path d="M156.36 456.72C163.186 456.72 168.72 451.186 168.72 444.36C168.72 437.534 163.186 432 156.36 432C149.534 432 144 437.534 144 444.36C144 451.186 149.534 456.72 156.36 456.72Z" fill="white"/>
<path d="M252.36 456.72C259.186 456.72 264.72 451.186 264.72 444.36C264.72 437.534 259.186 432 252.36 432C245.534 432 240 437.534 240 444.36C240 451.186 245.534 456.72 252.36 456.72Z" fill="white"/>
<path d="M276.36 456.72C283.186 456.72 288.72 451.186 288.72 444.36C288.72 437.534 283.186 432 276.36 432C269.534 432 264 437.534 264 444.36C264 451.186 269.534 456.72 276.36 456.72Z" fill="white"/>
<path d="M324.36 456.72C331.186 456.72 336.72 451.186 336.72 444.36C336.72 437.534 331.186 432 324.36 432C317.534 432 312 437.534 312 444.36C312 451.186 317.534 456.72 324.36 456.72Z" fill="white"/>
<path d="M348.36 456.72C355.186 456.72 360.72 451.186 360.72 444.36C360.72 437.534 355.186 432 348.36 432C341.534 432 336 437.534 336 444.36C336 451.186 341.534 456.72 348.36 456.72Z" fill="white"/>
<path d="M372.36 456.72C379.186 456.72 384.72 451.186 384.72 444.36C384.72 437.534 379.186 432 372.36 432C365.534 432 360 437.534 360 444.36C360 451.186 365.534 456.72 372.36 456.72Z" fill="white"/>
<path d="M420.36 456.72C427.186 456.72 432.72 451.186 432.72 444.36C432.72 437.534 427.186 432 420.36 432C413.534 432 408 437.534 408 444.36C408 451.186 413.534 456.72 420.36 456.72Z" fill="white"/>
<path d="M516.36 456.72C523.186 456.72 528.72 451.186 528.72 444.36C528.72 437.534 523.186 432 516.36 432C509.534 432 504 437.534 504 444.36C504 451.186 509.534 456.72 516.36 456.72Z" fill="white"/>
<path d="M588.36 456.72C595.186 456.72 600.72 451.186 600.72 444.36C600.72 437.534 595.186 432 588.36 432C581.534 432 576 437.534 576 444.36C576 451.186 581.534 456.72 588.36 456.72Z" fill="white"/>
<path d="M636.36 456.72C643.186 456.72 648.72 451.186 648.72 444.36C648.72 437.534 643.186 432 636.36 432C629.534 432 624 437.534 624 444.36C624 451.186 629.534 456.72 636.36 456.72Z" fill="white"/>
<path d="M12.36 480.72C19.1862 480.72 24.72 475.186 24.72 468.36C24.72 461.534 19.1862 456 12.36 456C5.53376 456 0 461.534 0 468.36C0 475.186 5.53376 480.72 12.36 480.72Z" fill="white"/>
<path d="M84.36 480.72C91.1862 480.72 96.72 475.186 96.72 468.36C96.72 461.534 91.1862 456 84.36 456C77.5338 456 72 461.534 72 468.36C72 475.186 77.5338 480.72 84.36 480.72Z" fill="white"/>
<path d="M132.36 480.72C139.186 480.72 144.72 475.186 144.72 468.36C144.72 461.534 139.186 456 132.36 456C125.534 456 120 461.534 120 468.36C120 475.186 125.534 480.72 132.36 480.72Z" fill="white"/>
<path d="M252.36 480.72C259.186 480.72 264.72 475.186 264.72 468.36C264.72 461.534 259.186 456 252.36 456C245.534 456 240 461.534 240 468.36C240 475.186 245.534 480.72 252.36 480.72Z" fill="white"/>
<path d="M300.36 480.72C307.186 480.72 312.72 475.186 312.72 468.36C312.72 461.534 307.186 456 300.36 456C293.534 456 288 461.534 288 468.36C288 475.186 293.534 480.72 300.36 480.72Z" fill="white"/>
<path d="M324.36 480.72C331.186 480.72 336.72 475.186 336.72 468.36C336.72 461.534 331.186 456 324.36 456C317.534 456 312 461.534 312 468.36C312 475.186 317.534 480.72 324.36 480.72Z" fill="white"/>
<path d="M396.36 480.72C403.186 480.72 408.72 475.186 408.72 468.36C408.72 461.534 403.186 456 396.36 456C389.534 456 384 461.534 384 468.36C384 475.186 389.534 480.72 396.36 480.72Z" fill="white"/>
<path d="M444.36 480.72C451.186 480.72 456.72 475.186 456.72 468.36C456.72 461.534 451.186 456 444.36 456C437.534 456 432 461.534 432 468.36C432 475.186 437.534 480.72 444.36 480.72Z" fill="white"/>
<path d="M492.36 480.72C499.186 480.72 504.72 475.186 504.72 468.36C504.72 461.534 499.186 456 492.36 456C485.534 456 480 461.534 480 468.36C480 475.186 485.534 480.72 492.36 480.72Z" fill="white"/>
<path d="M516.36 480.72C523.186 480.72 528.72 475.186 528.72 468.36C528.72 461.534 523.186 456 516.36 456C509.534 456 504 461.534 504 468.36C504 475.186 509.534 480.72 516.36 480.72Z" fill="white"/>
<path d="M660.36 480.72C667.186 480.72 672.72 475.186 672.72 468.36C672.72 461.534 667.186 456 660.36 456C653.534 456 648 461.534 648 468.36C648 475.186 653.534 480.72 660.36 480.72Z" fill="white"/>
<path d="M12.36 504.72C19.1862 504.72 24.72 499.186 24.72 492.36C24.72 485.534 19.1862 480 12.36 480C5.53376 480 0 485.534 0 492.36C0 499.186 5.53376 504.72 12.36 504.72Z" fill="white"/>
<path d="M60.36 504.72C67.1862 504.72 72.72 499.186 72.72 492.36C72.72 485.534 67.1862 480 60.36 480C53.5338 480 48 485.534 48 492.36C48 499.186 53.5338 504.72 60.36 504.72Z" fill="white"/>
<path d="M156.36 504.72C163.186 504.72 168.72 499.186 168.72 492.36C168.72 485.534 163.186 480 156.36 480C149.534 480 144 485.534 144 492.36C144 499.186 149.534 504.72 156.36 504.72Z" fill="white"/>
<path d="M204.36 504.72C211.186 504.72 216.72 499.186 216.72 492.36C216.72 485.534 211.186 480 204.36 480C197.534 480 192 485.534 192 492.36C192 499.186 197.534 504.72 204.36 504.72Z" fill="white"/>
<path d="M228.36 504.72C235.186 504.72 240.72 499.186 240.72 492.36C240.72 485.534 235.186 480 228.36 480C221.534 480 216 485.534 216 492.36C216 499.186 221.534 504.72 228.36 504.72Z" fill="white"/>
<path d="M300.36 504.72C307.186 504.72 312.72 499.186 312.72 492.36C312.72 485.534 307.186 480 300.36 480C293.534 480 288 485.534 288 492.36C288 499.186 293.534 504.72 300.36 504.72Z" fill="white"/>
<path d="M348.36 504.72C355.186 504.72 360.72 499.186 360.72 492.36C360.72 485.534 355.186 480 348.36 480C341.534 480 336 485.534 336 492.36C336 499.186 341.534 504.72 348.36 504.72Z" fill="white"/>
<path d="M372.36 504.72C379.186 504.72 384.72 499.186 384.72 492.36C384.72 485.534 379.186 480 372.36 480C365.534 480 360 485.534 360 492.36C360 499.186 365.534 504.72 372.36 504.72Z" fill="white"/>
<path d="M420.36 504.72C427.186 504.72 432.72 499.186 432.72 492.36C432.72 485.534 427.186 480 420.36 480C413.534 480 408 485.534 408 492.36C408 499.186 413.534 504.72 420.36 504.72Z" fill="white"/>
<path d="M468.36 504.72C475.186 504.72 480.72 499.186 480.72 492.36C480.72 485.534 475.186 480 468.36 480C461.534 480 456 485.534 456 492.36C456 499.186 461.534 504.72 468.36 504.72Z" fill="white"/>
<path d="M492.36 504.72C499.186 504.72 504.72 499.186 504.72 492.36C504.72 485.534 499.186 480 492.36 480C485.534 480 480 485.534 480 492.36C480 499.186 485.534 504.72 492.36 504.72Z" fill="white"/>
<path d="M516.36 504.72C523.186 504.72 528.72 499.186 528.72 492.36C528.72 485.534 523.186 480 516.36 480C509.534 480 504 485.534 504 492.36C504 499.186 509.534 504.72 516.36 504.72Z" fill="white"/>
<path d="M540.36 504.72C547.186 504.72 552.72 499.186 552.72 492.36C552.72 485.534 547.186 480 540.36 480C533.534 480 528 485.534 528 492.36C528 499.186 533.534 504.72 540.36 504.72Z" fill="white"/>
<path d="M564.36 504.72C571.186 504.72 576.72 499.186 576.72 492.36C576.72 485.534 571.186 480 564.36 480C557.534 480 552 485.534 552 492.36C552 499.186 557.534 504.72 564.36 504.72Z" fill="white"/>
<path d="M588.36 504.72C595.186 504.72 600.72 499.186 600.72 492.36C600.72 485.534 595.186 480 588.36 480C581.534 480 576 485.534 576 492.36C576 499.186 581.534 504.72 588.36 504.72Z" fill="white"/>
<path d="M636.36 504.72C643.186 504.72 648.72 499.186 648.72 492.36C648.72 485.534 643.186 480 636.36 480C629.534 480 624 485.534 624 492.36C624 499.186 629.534 504.72 636.36 504.72Z" fill="white"/>
<path d="M660.36 504.72C667.186 504.72 672.72 499.186 672.72 492.36C672.72 485.534 667.186 480 660.36 480C653.534 480 648 485.534 648 492.36C648 499.186 653.534 504.72 660.36 504.72Z" fill="white"/>
<path d="M684.36 504.72C691.186 504.72 696.72 499.186 696.72 492.36C696.72 485.534 691.186 480 684.36 480C677.534 480 672 485.534 672 492.36C672 499.186 677.534 504.72 684.36 504.72Z" fill="white"/>
<path d="M204.36 528.72C211.186 528.72 216.72 523.186 216.72 516.36C216.72 509.534 211.186 504 204.36 504C197.534 504 192 509.534 192 516.36C192 523.186 197.534 528.72 204.36 528.72Z" fill="white"/>
<path d="M228.36 528.72C235.186 528.72 240.72 523.186 240.72 516.36C240.72 509.534 235.186 504 228.36 504C221.534 504 216 509.534 216 516.36C216 523.186 221.534 528.72 228.36 528.72Z" fill="white"/>
<path d="M276.36 528.72C283.186 528.72 288.72 523.186 288.72 516.36C288.72 509.534 283.186 504 276.36 504C269.534 504 264 509.534 264 516.36C264 523.186 269.534 528.72 276.36 528.72Z" fill="white"/>
<path d="M396.36 528.72C403.186 528.72 408.72 523.186 408.72 516.36C408.72 509.534 403.186 504 396.36 504C389.534 504 384 509.534 384 516.36C384 523.186 389.534 528.72 396.36 528.72Z" fill="white"/>
<path d="M444.36 528.72C451.186 528.72 456.72 523.186 456.72 516.36C456.72 509.534 451.186 504 444.36 504C437.534 504 432 509.534 432 516.36C432 523.186 437.534 528.72 444.36 528.72Z" fill="white"/>
<path d="M492.36 528.72C499.186 528.72 504.72 523.186 504.72 516.36C504.72 509.534 499.186 504 492.36 504C485.534 504 480 509.534 480 516.36C480 523.186 485.534 528.72 492.36 528.72Z" fill="white"/>
<path d="M588.36 528.72C595.186 528.72 600.72 523.186 600.72 516.36C600.72 509.534 595.186 504 588.36 504C581.534 504 576 509.534 576 516.36C576 523.186 581.534 528.72 588.36 528.72Z" fill="white"/>
<path d="M612.36 528.72C619.186 528.72 624.72 523.186 624.72 516.36C624.72 509.534 619.186 504 612.36 504C605.534 504 600 509.534 600 516.36C600 523.186 605.534 528.72 612.36 528.72Z" fill="white"/>
<path d="M636.36 528.72C643.186 528.72 648.72 523.186 648.72 516.36C648.72 509.534 643.186 504 636.36 504C629.534 504 624 509.534 624 516.36C624 523.186 629.534 528.72 636.36 528.72Z" fill="white"/>
<path d="M660.36 528.72C667.186 528.72 672.72 523.186 672.72 516.36C672.72 509.534 667.186 504 660.36 504C653.534 504 648 509.534 648 516.36C648 523.186 653.534 528.72 660.36 528.72Z" fill="white"/>
<path d="M684.36 528.72C691.186 528.72 696.72 523.186 696.72 516.36C696.72 509.534 691.186 504 684.36 504C677.534 504 672 509.534 672 516.36C672 523.186 677.534 528.72 684.36 528.72Z" fill="white"/>
<path d="M372.36 552.72C379.186 552.72 384.72 547.186 384.72 540.36C384.72 533.534 379.186 528 372.36 528C365.534 528 360 533.534 360 540.36C360 547.186 365.534 552.72 372.36 552.72Z" fill="white"/>
<path d="M396.36 552.72C403.186 552.72 408.72 547.186 408.72 540.36C408.72 533.534 403.186 528 396.36 528C389.534 528 384 533.534 384 540.36C384 547.186 389.534 552.72 396.36 552.72Z" fill="white"/>
<path d="M468.36 552.72C475.186 552.72 480.72 547.186 480.72 540.36C480.72 533.534 475.186 528 468.36 528C461.534 528 456 533.534 456 540.36C456 547.186 461.534 552.72 468.36 552.72Z" fill="white"/>
<path d="M492.36 552.72C499.186 552.72 504.72 547.186 504.72 540.36C504.72 533.534 499.186 528 492.36 528C485.534 528 480 533.534 480 540.36C480 547.186 485.534 552.72 492.36 552.72Z" fill="white"/>
<path d="M540.36 552.72C547.186 552.72 552.72 547.186 552.72 540.36C552.72 533.534 547.186 528 540.36 528C533.534 528 528 533.534 528 540.36C528 547.186 533.534 552.72 540.36 552.72Z" fill="white"/>
<path d="M588.36 552.72C595.186 552.72 600.72 547.186 600.72 540.36C600.72 533.534 595.186 528 588.36 528C581.534 528 576 533.534 576 540.36C576 547.186 581.534 552.72 588.36 552.72Z" fill="white"/>
<path d="M612.36 552.72C619.186 552.72 624.72 547.186 624.72 540.36C624.72 533.534 619.186 528 612.36 528C605.534 528 600 533.534 600 540.36C600 547.186 605.534 552.72 612.36 552.72Z" fill="white"/>
<path d="M636.36 552.72C643.186 552.72 648.72 547.186 648.72 540.36C648.72 533.534 643.186 528 636.36 528C629.534 528 624 533.534 624 540.36C624 547.186 629.534 552.72 636.36 552.72Z" fill="white"/>
<path d="M204.36 576.72C211.186 576.72 216.72 571.186 216.72 564.36C216.72 557.534 211.186 552 204.36 552C197.534 552 192 557.534 192 564.36C192 571.186 197.534 576.72 204.36 576.72Z" fill="white"/>
<path d="M300.36 576.72C307.186 576.72 312.72 571.186 312.72 564.36C312.72 557.534 307.186 552 300.36 552C293.534 552 288 557.534 288 564.36C288 571.186 293.534 576.72 300.36 576.72Z" fill="white"/>
<path d="M348.36 576.72C355.186 576.72 360.72 571.186 360.72 564.36C360.72 557.534 355.186 552 348.36 552C341.534 552 336 557.534 336 564.36C336 571.186 341.534 576.72 348.36 576.72Z" fill="white"/>
<path d="M372.36 576.72C379.186 576.72 384.72 571.186 384.72 564.36C384.72 557.534 379.186 552 372.36 552C365.534 552 360 557.534 360 564.36C360 571.186 365.534 576.72 372.36 576.72Z" fill="white"/>
<path d="M468.36 576.72C475.186 576.72 480.72 571.186 480.72 564.36C480.72 557.534 475.186 552 468.36 552C461.534 552 456 557.534 456 564.36C456 571.186 461.534 576.72 468.36 576.72Z" fill="white"/>
<path d="M492.36 576.72C499.186 576.72 504.72 571.186 504.72 564.36C504.72 557.534 499.186 552 492.36 552C485.534 552 480 557.534 480 564.36C480 571.186 485.534 576.72 492.36 576.72Z" fill="white"/>
<path d="M588.36 576.72C595.186 576.72 600.72 571.186 600.72 564.36C600.72 557.534 595.186 552 588.36 552C581.534 552 576 557.534 576 564.36C576 571.186 581.534 576.72 588.36 576.72Z" fill="white"/>
<path d="M660.36 576.72C667.186 576.72 672.72 571.186 672.72 564.36C672.72 557.534 667.186 552 660.36 552C653.534 552 648 557.534 648 564.36C648 571.186 653.534 576.72 660.36 576.72Z" fill="white"/>
<path d="M684.36 576.72C691.186 576.72 696.72 571.186 696.72 564.36C696.72 557.534 691.186 552 684.36 552C677.534 552 672 557.534 672 564.36C672 571.186 677.534 576.72 684.36 576.72Z" fill="white"/>
<path d="M204.36 600.72C211.186 600.72 216.72 595.186 216.72 588.36C216.72 581.534 211.186 576 204.36 576C197.534 576 192 581.534 192 588.36C192 595.186 197.534 600.72 204.36 600.72Z" fill="white"/>
<path d="M252.36 600.72C259.186 600.72 264.72 595.186 264.72 588.36C264.72 581.534 259.186 576 252.36 576C245.534 576 240 581.534 240 588.36C240 595.186 245.534 600.72 252.36 600.72Z" fill="white"/>
<path d="M276.36 600.72C283.186 600.72 288.72 595.186 288.72 588.36C288.72 581.534 283.186 576 276.36 576C269.534 576 264 581.534 264 588.36C264 595.186 269.534 600.72 276.36 600.72Z" fill="white"/>
<path d="M420.36 600.72C427.186 600.72 432.72 595.186 432.72 588.36C432.72 581.534 427.186 576 420.36 576C413.534 576 408 581.534 408 588.36C408 595.186 413.534 600.72 420.36 600.72Z" fill="white"/>
<path d="M492.36 600.72C499.186 600.72 504.72 595.186 504.72 588.36C504.72 581.534 499.186 576 492.36 576C485.534 576 480 581.534 480 588.36C480 595.186 485.534 600.72 492.36 600.72Z" fill="white"/>
<path d="M516.36 600.72C523.186 600.72 528.72 595.186 528.72 588.36C528.72 581.534 523.186 576 516.36 576C509.534 576 504 581.534 504 588.36C504 595.186 509.534 600.72 516.36 600.72Z" fill="white"/>
<path d="M540.36 600.72C547.186 600.72 552.72 595.186 552.72 588.36C552.72 581.534 547.186 576 540.36 576C533.534 576 528 581.534 528 588.36C528 595.186 533.534 600.72 540.36 600.72Z" fill="white"/>
<path d="M564.36 600.72C571.186 600.72 576.72 595.186 576.72 588.36C576.72 581.534 571.186 576 564.36 576C557.534 576 552 581.534 552 588.36C552 595.186 557.534 600.72 564.36 600.72Z" fill="white"/>
<path d="M588.36 600.72C595.186 600.72 600.72 595.186 600.72 588.36C600.72 581.534 595.186 576 588.36 576C581.534 576 576 581.534 576 588.36C576 595.186 581.534 600.72 588.36 600.72Z" fill="white"/>
<path d="M636.36 600.72C643.186 600.72 648.72 595.186 648.72 588.36C648.72 581.534 643.186 576 636.36 576C629.534 576 624 581.534 624 588.36C624 595.186 629.534 600.72 636.36 600.72Z" fill="white"/>
<path d="M204.36 624.72C211.186 624.72 216.72 619.186 216.72 612.36C216.72 605.534 211.186 600 204.36 600C197.534 600 192 605.534 192 612.36C192 619.186 197.534 624.72 204.36 624.72Z" fill="white"/>
<path d="M300.36 624.72C307.186 624.72 312.72 619.186 312.72 612.36C312.72 605.534 307.186 600 300.36 600C293.534 600 288 605.534 288 612.36C288 619.186 293.534 624.72 300.36 624.72Z" fill="white"/>
<path d="M348.36 624.72C355.186 624.72 360.72 619.186 360.72 612.36C360.72 605.534 355.186 600 348.36 600C341.534 600 336 605.534 336 612.36C336 619.186 341.534 624.72 348.36 624.72Z" fill="white"/>
<path d="M396.36 624.72C403.186 624.72 408.72 619.186 408.72 612.36C408.72 605.534 403.186 600 396.36 600C389.534 600 384 605.534 384 612.36C384 619.186 389.534 624.72 396.36 624.72Z" fill="white"/>
<path d="M468.36 624.72C475.186 624.72 480.72 619.186 480.72 612.36C480.72 605.534 475.186 600 468.36 600C461.534 600 456 605.534 456 612.36C456 619.186 461.534 624.72 468.36 624.72Z" fill="white"/>
<path d="M612.36 624.72C619.186 624.72 624.72 619.186 624.72 612.36C624.72 605.534 619.186 600 612.36 600C605.534 600 600 605.534 600 612.36C600 619.186 605.534 624.72 612.36 624.72Z" fill="white"/>
<path d="M636.36 624.72C643.186 624.72 648.72 619.186 648.72 612.36C648.72 605.534 643.186 600 636.36 600C629.534 600 624 605.534 624 612.36C624 619.186 629.534 624.72 636.36 624.72Z" fill="white"/>
<path d="M660.36 624.72C667.186 624.72 672.72 619.186 672.72 612.36C672.72 605.534 667.186 600 660.36 600C653.534 600 648 605.534 648 612.36C648 619.186 653.534 624.72 660.36 624.72Z" fill="white"/>
<path d="M684.36 624.72C691.186 624.72 696.72 619.186 696.72 612.36C696.72 605.534 691.186 600 684.36 600C677.534 600 672 605.534 672 612.36C672 619.186 677.534 624.72 684.36 624.72Z" fill="white"/>
<path d="M204.36 648.72C211.186 648.72 216.72 643.186 216.72 636.36C216.72 629.534 211.186 624 204.36 624C197.534 624 192 629.534 192 636.36C192 643.186 197.534 648.72 204.36 648.72Z" fill="white"/>
<path d="M276.36 648.72C283.186 648.72 288.72 643.186 288.72 636.36C288.72 629.534 283.186 624 276.36 624C269.534 624 264 629.534 264 636.36C264 643.186 269.534 648.72 276.36 648.72Z" fill="white"/>
<path d="M300.36 648.72C307.186 648.72 312.72 643.186 312.72 636.36C312.72 629.534 307.186 624 300.36 624C293.534 624 288 629.534 288 636.36C288 643.186 293.534 648.72 300.36 648.72Z" fill="white"/>
<path d="M372.36 648.72C379.186 648.72 384.72 643.186 384.72 636.36C384.72 629.534 379.186 624 372.36 624C365.534 624 360 629.534 360 636.36C360 643.186 365.534 648.72 372.36 648.72Z" fill="white"/>
<path d="M468.36 648.72C475.186 648.72 480.72 643.186 480.72 636.36C480.72 629.534 475.186 624 468.36 624C461.534 624 456 629.534 456 636.36C456 643.186 461.534 648.72 468.36 648.72Z" fill="white"/>
<path d="M492.36 648.72C499.186 648.72 504.72 643.186 504.72 636.36C504.72 629.534 499.186 624 492.36 624C485.534 624 480 629.534 480 636.36C480 643.186 485.534 648.72 492.36 648.72Z" fill="white"/>
<path d="M540.36 648.72C547.186 648.72 552.72 643.186 552.72 636.36C552.72 629.534 547.186 624 540.36 624C533.534 624 528 629.534 528 636.36C528 643.186 533.534 648.72 540.36 648.72Z" fill="white"/>
<path d="M564.36 648.72C571.186 648.72 576.72 643.186 576.72 636.36C576.72 629.534 571.186 624 564.36 624C557.534 624 552 629.534 552 636.36C552 643.186 557.534 648.72 564.36 648.72Z" fill="white"/>
<path d="M588.36 648.72C595.186 648.72 600.72 643.186 600.72 636.36C600.72 629.534 595.186 624 588.36 624C581.534 624 576 629.534 576 636.36C576 643.186 581.534 648.72 588.36 648.72Z" fill="white"/>
<path d="M612.36 648.72C619.186 648.72 624.72 643.186 624.72 636.36C624.72 629.534 619.186 624 612.36 624C605.534 624 600 629.534 600 636.36C600 643.186 605.534 648.72 612.36 648.72Z" fill="white"/>
<path d="M636.36 648.72C643.186 648.72 648.72 643.186 648.72 636.36C648.72 629.534 643.186 624 636.36 624C629.534 624 624 629.534 624 636.36C624 643.186 629.534 648.72 636.36 648.72Z" fill="white"/>
<path d="M660.36 648.72C667.186 648.72 672.72 643.186 672.72 636.36C672.72 629.534 667.186 624 660.36 624C653.534 624 648 629.534 648 636.36C648 643.186 653.534 648.72 660.36 648.72Z" fill="white"/>
<path d="M252.36 672.72C259.186 672.72 264.72 667.186 264.72 660.36C264.72 653.534 259.186 648 252.36 648C245.534 648 240 653.534 240 660.36C240 667.186 245.534 672.72 252.36 672.72Z" fill="white"/>
<path d="M276.36 672.72C283.186 672.72 288.72 667.186 288.72 660.36C288.72 653.534 283.186 648 276.36 648C269.534 648 264 653.534 264 660.36C264 667.186 269.534 672.72 276.36 672.72Z" fill="white"/>
<path d="M300.36 672.72C307.186 672.72 312.72 667.186 312.72 660.36C312.72 653.534 307.186 648 300.36 648C293.534 648 288 653.534 288 660.36C288 667.186 293.534 672.72 300.36 672.72Z" fill="white"/>
<path d="M348.36 672.72C355.186 672.72 360.72 667.186 360.72 660.36C360.72 653.534 355.186 648 348.36 648C341.534 648 336 653.534 336 660.36C336 667.186 341.534 672.72 348.36 672.72Z" fill="white"/>
<path d="M372.36 672.72C379.186 672.72 384.72 667.186 384.72 660.36C384.72 653.534 379.186 648 372.36 648C365.534 648 360 653.534 360 660.36C360 667.186 365.534 672.72 372.36 672.72Z" fill="white"/>
<path d="M396.36 672.72C403.186 672.72 408.72 667.186 408.72 660.36C408.72 653.534 403.186 648 396.36 648C389.534 648 384 653.534 384 660.36C384 667.186 389.534 672.72 396.36 672.72Z" fill="white"/>
<path d="M444.36 672.72C451.186 672.72 456.72 667.186 456.72 660.36C456.72 653.534 451.186 648 444.36 648C437.534 648 432 653.534 432 660.36C432 667.186 437.534 672.72 444.36 672.72Z" fill="white"/>
<path d="M492.36 672.72C499.186 672.72 504.72 667.186 504.72 660.36C504.72 653.534 499.186 648 492.36 648C485.534 648 480 653.534 480 660.36C480 667.186 485.534 672.72 492.36 672.72Z" fill="white"/>
<path d="M516.36 672.72C523.186 672.72 528.72 667.186 528.72 660.36C528.72 653.534 523.186 648 516.36 648C509.534 648 504 653.534 504 660.36C504 667.186 509.534 672.72 516.36 672.72Z" fill="white"/>
<path d="M564.36 672.72C571.186 672.72 576.72 667.186 576.72 660.36C576.72 653.534 571.186 648 564.36 648C557.534 648 552 653.534 552 660.36C552 667.186 557.534 672.72 564.36 672.72Z" fill="white"/>
<path d="M612.36 672.72C619.186 672.72 624.72 667.186 624.72 660.36C624.72 653.534 619.186 648 612.36 648C605.534 648 600 653.534 600 660.36C600 667.186 605.534 672.72 612.36 672.72Z" fill="white"/>
<path d="M660.36 672.72C667.186 672.72 672.72 667.186 672.72 660.36C672.72 653.534 667.186 648 660.36 648C653.534 648 648 653.534 648 660.36C648 667.186 653.534 672.72 660.36 672.72Z" fill="white"/>
<path d="M204.36 696.72C211.186 696.72 216.72 691.186 216.72 684.36C216.72 677.534 211.186 672 204.36 672C197.534 672 192 677.534 192 684.36C192 691.186 197.534 696.72 204.36 696.72Z" fill="white"/>
<path d="M228.36 696.72C235.186 696.72 240.72 691.186 240.72 684.36C240.72 677.534 235.186 672 228.36 672C221.534 672 216 677.534 216 684.36C216 691.186 221.534 696.72 228.36 696.72Z" fill="white"/>
<path d="M252.36 696.72C259.186 696.72 264.72 691.186 264.72 684.36C264.72 677.534 259.186 672 252.36 672C245.534 672 240 677.534 240 684.36C240 691.186 245.534 696.72 252.36 696.72Z" fill="white"/>
<path d="M420.36 696.72C427.186 696.72 432.72 691.186 432.72 684.36C432.72 677.534 427.186 672 420.36 672C413.534 672 408 677.534 408 684.36C408 691.186 413.534 696.72 420.36 696.72Z" fill="white"/>
<path d="M516.36 696.72C523.186 696.72 528.72 691.186 528.72 684.36C528.72 677.534 523.186 672 516.36 672C509.534 672 504 677.534 504 684.36C504 691.186 509.534 696.72 516.36 696.72Z" fill="white"/>
<path d="M564.36 696.72C571.186 696.72 576.72 691.186 576.72 684.36C576.72 677.534 571.186 672 564.36 672C557.534 672 552 677.534 552 684.36C552 691.186 557.534 696.72 564.36 696.72Z" fill="white"/>
<path d="M588.36 696.72C595.186 696.72 600.72 691.186 600.72 684.36C600.72 677.534 595.186 672 588.36 672C581.534 672 576 677.534 576 684.36C576 691.186 581.534 696.72 588.36 696.72Z" fill="white"/>
<path d="M612.36 696.72C619.186 696.72 624.72 691.186 624.72 684.36C624.72 677.534 619.186 672 612.36 672C605.534 672 600 677.534 600 684.36C600 691.186 605.534 696.72 612.36 696.72Z" fill="white"/>
<path d="M636.36 696.72C643.186 696.72 648.72 691.186 648.72 684.36C648.72 677.534 643.186 672 636.36 672C629.534 672 624 677.534 624 684.36C624 691.186 629.534 696.72 636.36 696.72Z" fill="white"/>
<path d="M0 0V168H168V0H0ZM144 144H24V24H144V144Z" fill="white"/>
<path d="M528 0V168H696V0H528ZM672 144H552V24H672V144Z" fill="white"/>
<path d="M0 528V696H168V528H0ZM144 672H24V552H144V672Z" fill="white"/>
<path d="M120 48H48V120H120V48Z" fill="white"/>
<path d="M648 48H576V120H648V48Z" fill="white"/>
<path d="M120 576H48V648H120V576Z" fill="white"/>
</svg>
